<svg width="15" height="16" viewBox="0 0 15 16" fill="none" xmlns="http://www.w3.org/2000/svg">
<rect x="6" y="12" width="3" height="3" fill="#1f2937"/>
<rect x="2" y="8" width="2" height="2" fill="#1f2937"/>
<rect x="2" y="8" width="2" height="2" fill="#1f2937"/>
<rect x="2" y="11" width="2" height="2" fill="#1f2937"/>
<rect x="5" y="5" width="2" height="2" fill="#1f2937"/>
<rect x="2" y="5" width="2" height="2" fill="#1f2937"/>
<rect x="5" y="8" width="2" height="2" fill="#1f2937"/>
<rect x="8" y="5" width="2" height="2" fill="#1f2937"/>
<rect x="8" y="8" width="2" height="2" fill="#1f2937"/>
<rect x="11" y="8" width="2" height="2" fill="#1f2937"/>
<rect x="11" y="11" width="2" height="2" fill="#1f2937"/>
<rect x="8" y="2" width="2" height="2" fill="#1f2937"/>
<rect x="5" y="2" width="2" height="2" fill="#1f2937"/>
<path d="M11.5 6V6.5H12H14.5V15V15.5H9.07718H6.7289H0.5V15.2456V10.2456V3.5H3H3.5V3V0.5H7H8H9H11.5V6Z" stroke="#1f2937"/>
</svg>
