<svg width="32" height="16" viewBox="0 0 32 30" fill="none" xmlns="http://www.w3.org/2000/svg">
<path d="M24.4388 18.9294C22.6676 21.3396 21.1841 23.3575 19.8156 24.9582C18.4435 26.5633 17.2487 27.6731 16.0815 28.3195C14.9522 28.9448 13.8293 29.148 12.5268 28.8924C11.374 28.6663 10.0384 28.0721 8.416 27.0011L13.1728 20.5246C13.8435 20.9631 14.4602 21.2995 15.0437 21.5044C15.8996 21.805 16.723 21.8352 17.54 21.4908C18.2998 21.1705 18.9489 20.5671 19.5767 19.8462C20.2066 19.1228 20.9042 18.1729 21.729 17.0495L21.7461 17.0263L21.7692 16.9948C22.5914 15.8752 23.2869 14.9281 23.7863 14.1143C24.2847 13.3025 24.6664 12.5032 24.7398 11.6844C24.819 10.8003 24.5305 10.0289 23.9738 9.31564C23.5988 8.83514 23.0899 8.36471 22.4688 7.87634L27.2267 1.40246C28.7723 2.59896 29.7627 3.67161 30.3384 4.68413C30.9846 5.82069 31.1362 6.92927 30.8857 8.17662C30.6263 9.46888 29.9298 10.9329 28.8096 12.7196C27.6929 14.5007 26.2101 16.5192 24.4388 18.9294Z" stroke="#1f2937" stroke-width="2" stroke-miterlimit="10"/>
<path d="M5.06405 18.5787C5.06405 19.6775 4.16278 20.5836 3.03203 20.5836C1.90128 20.5836 1 19.6775 1 18.5787C1 17.4799 1.90128 16.5738 3.03203 16.5738C4.16277 16.5738 5.06405 17.4799 5.06405 18.5787Z" stroke="#f97316" stroke-width="2" stroke-miterlimit="10"/>
</svg>
