<svg width="85" height="85" viewBox="0 0 85 85" fill="none" xmlns="http://www.w3.org/2000/svg">
<path d="M59.6301 47.52H45.0801V52.11H59.6301V47.52Z" fill="#f97316"/>
<path d="M78.9205 47.52H64.2305V52.11H78.9205V47.52Z" fill="#f97316"/>
<path d="M40.4904 47.52H25.9404V52.11H40.4904V47.52Z" fill="#f97316"/>
<path d="M21.3599 47.52H6.66992V52.11H21.3599V47.52Z" fill="#f97316"/>
<path d="M78.9205 61.64H64.2305V66.23H78.9205V61.64Z" fill="#f97316"/>
<path d="M59.6301 61.64H45.0801V66.23H59.6301V61.64Z" fill="#f97316"/>
<path d="M40.4904 61.64H25.9404V66.23H40.4904V61.64Z" fill="#f97316"/>
<path d="M21.3599 61.64H6.66992V66.23H21.3599V61.64Z" fill="#f97316"/>
<path d="M38.7296 9.39999H22.5996V13.99H38.7296V9.39999Z" fill="#1f2937"/>
<path d="M71.2201 9.39999V13.99H78.9101V32.7H6.67008V13.99H14.4801V9.39999H2.08008V69.34C2.08008 75.49 7.09008 80.5 13.2401 80.5H72.3401C78.4901 80.5 83.5001 75.49 83.5001 69.34V9.39999H71.2201ZM6.67008 69.34V66.22V61.63V52.1V47.51V37.28H21.3601V47.52V52.11V61.64V66.23V75.92H13.2401C9.62008 75.91 6.67008 72.96 6.67008 69.34ZM25.9401 66.23V61.64V52.11V47.52V37.28H40.5001V47.52V52.11V61.64V66.23V75.92H25.9401V66.23ZM45.0801 66.23V61.64V52.11V47.52V37.28H59.6301V47.52V52.11V61.64V66.23V75.92H45.0801V66.23ZM78.9101 69.34C78.9101 72.96 75.9601 75.91 72.3401 75.91H64.2201V66.22V61.63V52.1V47.51V37.28H78.9101V47.52V52.11V61.64V66.23V69.34Z" fill="#1f2937"/>
<path d="M63.1096 9.39999H46.8496V13.99H63.1096V9.39999Z" fill="#1f2937"/>
<path d="M20.84 19.11V13.99V9.39999V4.26999H16.25V9.39999V13.99V19.11H20.84Z" fill="#f97316"/>
<path d="M45.08 19.11V13.99V9.39999V4.26999H40.5V9.39999V13.99V19.11H45.08Z" fill="#f97316"/>
<path d="M69.4601 19.11V13.99V9.39999V4.26999H64.8701V9.39999V13.99V19.11H69.4601Z" fill="#f97316"/>
</svg>
