<svg xmlns="http://www.w3.org/2000/svg" xmlns:xlink="http://www.w3.org/1999/xlink" version="1.1" x="0px" y="0px" viewBox="0 0 100 100" enable-background="new 0 0 100 100" xml:space="preserve">
    <g>
        <polygon points="28.6,17 28.6,38.3 49.2,49.1 49.2,27.7 31.1,18.3  "/>
        <polygon points="71.4,17 68.9,18.3 50.8,27.7 50.8,49.1 71.4,38.3  "/>
        <polygon points="50,5 29.5,15.7 50,26.4 70.5,15.7  "/>
        <path d="M36.2,51.9L36.2,51.9l-7.8-8.7c-1.4-1.6-3.5-2.2-5.6-1.7L20.9,42c-0.6,0.1-1.1,0.5-1.4,1c-0.1,0.1-0.2,0.3-0.2,0.4   c-0.2,0.8-0.1,1.6,0.5,2.1l10.5,11.6c0,0,0,0,0,0c0.3,0.3,0.3,0.8-0.1,1.1c-0.2,0.1-0.3,0.2-0.5,0.2c-0.2,0-0.4-0.1-0.6-0.3   L18.6,46.7c-0.9-1-1.2-2.4-0.8-3.7c0.2-0.7,0.6-1.2,1-1.7V26.5c0-2.4-1.3-4.6-3.4-5.7l-1.7-0.9c-2-1.1-4.5,0.4-4.5,2.6v26.7v3.6   c0,5.7,4.5,14.2,10,17c2.2,1.1,3.6,3.5,3.6,6V95h19.6V70.7V64C42.4,59,39.9,54.6,36.2,51.9z"/>
        <path d="M86.2,19.8l-1.7,0.9c-2.1,1.1-3.4,3.3-3.4,5.7v14.9c0.5,0.4,0.8,1,1,1.7c0.4,1.3,0.1,2.7-0.8,3.7L70.9,58.3   c-0.2,0.2-0.4,0.3-0.6,0.3c-0.2,0-0.4-0.1-0.5-0.2c-0.3-0.3-0.3-0.8-0.1-1.1c0,0,0,0,0,0l10.5-11.6c0.5-0.6,0.7-1.4,0.5-2.1   c-0.1-0.2-0.1-0.3-0.2-0.4c-0.3-0.5-0.8-0.9-1.4-1l-1.9-0.4c-2-0.5-4.2,0.2-5.6,1.7l-7.9,8.6l0,0c-3.8,2.7-6.2,7.1-6.2,12v6.7V95   h19.6V75.7c0-2.5,1.3-4.9,3.6-6c5.4-2.8,10-11.3,10-17v-3.6V22.5C90.7,20.2,88.2,18.7,86.2,19.8z"/>
    </g>
</svg>