<svg width="40" height="15" viewBox="0 0 40 25" fill="none" xmlns="http://www.w3.org/2000/svg">
<path d="M22.5 12.5H21.25V13.75H22.5V12.5Z" fill="#1f2937"/>
<path d="M30 21.25H18.75V22.5H30V21.25Z" fill="#1f2937"/>
<path d="M30 10H18.75V20H30V10ZM28.75 18.75H20V11.25H28.75V18.75Z" fill="#1f2937"/>
<path d="M25 12.5H23.75V13.75H25V12.5Z" fill="#1f2937"/>
<path d="M27.5 12.5H26.25V13.75H27.5V12.5Z" fill="#1f2937"/>
<path d="M39.9957 0H38.5203H1.47548H0V1.25H1.25V12.7634V25H38.75V1.25H40V0H39.9957ZM27.1898 23.75H18.75V25H27.1898V23.75ZM35 23.75H33.75V18.75H35V23.75ZM37.5 23.75H36.25V17.5H32.5V23.75H28.125H33.75H17.5H2.5V1.25H37.5V23.75Z" fill="#1f2937"/>
<path d="M14.9776 13.75H14.0394H13.4424H12.5V16.2489H14.9776V13.75Z" fill="#f97316"/>
<path d="M12.5 17.5V19.9989H14.9776V17.5H14.0394H13.4424H12.5Z" fill="#f97316"/>
<path d="M11.2497 13.75H10.3115H9.71451H8.77208V16.2489H11.2497V13.75Z" fill="#f97316"/>
<path d="M8.75 17.5V19.9989H11.2276V17.5H10.2894H9.69243H8.75Z" fill="#f97316"/>
<path d="M7.49969 13.7511H6.56153H5.96451H5.02208V16.25H7.49969V13.7511Z" fill="#f97316"/>
<path d="M5.02257 17.5011V20H7.50018V17.5011H6.56202H5.965H5.02257Z" fill="#f97316"/>
<path d="M15 21.25H5V22.5H15V21.25Z" fill="#1f2937"/>
<path d="M15.0002 3.75H14.062H13.465H12.5226V6.24892H15.0002V3.75Z" fill="#f97316"/>
<path d="M15.0002 7.50111H14.062H13.465H12.5226V10H15.0002V7.50111Z" fill="#f97316"/>
<path d="M11.2276 3.75H10.2894H9.69243H8.75V6.24892H11.2276V3.75Z" fill="#f97316"/>
<path d="M11.2502 7.5H10.312H9.715H8.77257V9.99893H11.2502V7.5Z" fill="#f97316"/>
<path d="M7.50018 3.75H6.56202H5.965H5.02257V6.24892H7.50018V3.75Z" fill="#f97316"/>
<path d="M7.50018 7.50111H6.56202H5.965H5.02257V10H7.50018V7.50111Z" fill="#f97316"/>
<path d="M15 11.25H5V12.5H15V11.25Z" fill="#1f2937"/>
</svg>
