<svg xmlns="http://www.w3.org/2000/svg" viewBox="4 0 90 95" x="0px" y="0px">
    <path d="M61.81,46.65c2.05,0,3.71,1.66,3.71,3.71s-1.66,3.71-3.71,3.71-3.71-1.66-3.71-3.71,1.66-3.71,3.71-3.71h0Zm-19.7,7.43c-2.05,0-3.71-1.66-3.71-3.71s1.66-3.71,3.71-3.71,3.71,1.66,3.71,3.71-1.66,3.71-3.71,3.71h0Zm0,17.54c-2.05,0-3.71-1.66-3.71-3.71s1.66-3.71,3.71-3.71,3.71,1.66,3.71,3.71-1.66,3.71-3.71,3.71h0Zm-19.71-17.53c-2.05,0-3.71-1.66-3.71-3.71s1.66-3.71,3.71-3.71,3.71,1.66,3.71,3.71-1.66,3.71-3.71,3.71h0Zm0,17.54c-2.05,0-3.71-1.66-3.71-3.71s1.66-3.71,3.71-3.71,3.71,1.66,3.71,3.71-1.66,3.71-3.71,3.71h0Zm55.11-16.5c.23,0,.46,0,.69,.02v-15.8s-72.2,.03-72.2,.03v37.52c.01,3.44,2.81,6.24,6.26,6.24l48.28-.02c-1.38-2.64-2.16-5.64-2.17-8.82,0-10.56,8.58-19.15,19.14-19.16h0Z" fill="#1f2937"/>
    <path d="M20.39,23.53c1.93,0,3.49-1.57,3.49-3.49v-7.28c0-1.93-1.57-3.49-3.5-3.49s-3.49,1.57-3.49,3.49v7.28c0,1.93,1.57,3.49,3.5,3.49h0Z" fill="#1f2937"/>
    <path d="M61.8,23.51c1.93,0,3.49-1.57,3.49-3.49v-7.28c0-1.93-1.57-3.49-3.5-3.49s-3.49,1.57-3.49,3.49v7.28c0,1.93,1.57,3.49,3.5,3.49h0Z" fill="#1f2937"/>
    <path d="M78.2,23.85c0-3.44-2.8-6.24-6.24-6.24h-3.98s0,2.4,0,2.4c0,3.4-2.77,6.17-6.17,6.18s-6.18-2.77-6.18-6.17v-2.4s-29.07,.01-29.07,.01v2.4c0,3.4-2.77,6.17-6.17,6.18s-6.18-2.77-6.18-6.17v-2.4s-1.97,0-1.97,0c-3.44,0-6.24,2.8-6.24,6.24v12.81s72.2-.03,72.2-.03v-12.81h0Z" fill="#f97316"/>
    <path d="M85.86,76.83h-8.74c-.74,0-1.34-.6-1.34-1.34v-11.54c0-.74,.6-1.34,1.33-1.34s1.34,.6,1.34,1.34v10.2s7.4,0,7.4,0c.74,0,1.34,.6,1.34,1.34s-.6,1.34-1.34,1.34h0Zm-8.34-19.02c-9.08,0-16.47,7.39-16.47,16.48,0,9.08,7.4,16.47,16.48,16.47,9.08,0,16.47-7.39,16.47-16.48,0-9.08-7.39-16.47-16.48-16.47h0Z" fill="#f97316"/>
</svg>