<svg xmlns="http://www.w3.org/2000/svg" version="1.1" viewBox="-5.0 -10.0 110.0 110.0">
 <path d="m39.582 71.875c-5.1758 0-9.375 4.1992-9.375 9.375s4.1992 9.375 9.375 9.375c5.1797 0 9.375-4.1992 9.375-9.375s-4.1953-9.375-9.375-9.375z" fill="#f97316" fill-rule="evenodd"/>
 <path d="m68.75 71.875c-5.1758 0-9.375 4.1992-9.375 9.375s4.1992 9.375 9.375 9.375 9.375-4.1992 9.375-9.375-4.1992-9.375-9.375-9.375z" fill="#f97316" fill-rule="evenodd"/>
 <path d="m8.332 9.375c-1.7227 0-3.125 1.3984-3.125 3.125s1.4023 3.125 3.125 3.125h5.0195c0.48438 0 0.90625 0.33594 1.0156 0.80859l10.266 44.477c1.1992 5.1992 5.8281 8.8828 11.164 8.8828h37.168c5.0625 0 9.5234-3.3203 10.977-8.168l7.5-25c2.207-7.3516-3.3008-14.75-10.977-14.75h-58.426l-1.582-6.8477c-0.76172-3.3086-3.7109-5.6523-7.1055-5.6523z" fill="#1f2937" fill-rule="evenodd"/>
</svg>