<svg width="10" height="6" viewBox="0 0 20 31" fill="none" xmlns="http://www.w3.org/2000/svg">
<mask id="mask0_383_38091" style="mask-type:alpha" maskUnits="userSpaceOnUse" x="3" y="0" width="17" height="31">
<path fill-rule="evenodd" clip-rule="evenodd" d="M3.72266 0.37793H19.44V30.3779H3.72266V0.37793Z" fill="white"/>
</mask>
<g mask="url(#mask0_383_38091)">
<path fill-rule="evenodd" clip-rule="evenodd" d="M14.4283 30.3779H8.38248V27.9461C6.25091 27.6863 4.46957 27.2686 3.78119 24.928L5.26761 24.4602C5.67313 25.8388 6.47918 26.1185 9.24297 26.4284L9.93618 26.5061V28.7708H12.8746V26.5127L13.5606 26.4291C15.0768 26.2445 15.47 26.0593 16.5659 25.0127C17.6662 23.9782 17.8863 22.5445 17.8863 20.5652C17.8863 18.6618 17.1609 17.2363 15.6687 16.2073L12.3335 13.8853C12.1548 13.7601 11.9864 13.6436 11.826 13.5328C10.1497 12.3738 9.04228 11.6081 9.04228 9.42846C9.04228 8.40385 9.04228 6.27158 11.2611 6.27158L11.3772 6.2715C12.1601 6.26989 12.7814 6.26997 13.2359 6.73978C13.6476 7.16512 13.7043 7.7689 13.7043 8.35801V9.44376H17.3414L17.3418 8.4724C17.348 5.16214 17.3502 4.04699 13.6354 3.96748L12.8746 3.95121V1.98505H9.93618V3.93622L9.19033 3.967C5.27002 4.12924 5.27251 5.99938 5.27656 9.3943L5.27687 9.69365C5.27687 12.5999 5.98651 13.1056 7.70111 14.3271C7.83545 14.4228 7.97408 14.5216 8.11715 14.6249L10.9347 16.6448C12.8103 17.9828 13.9606 18.9126 13.9606 21.0623C13.9606 22.0845 13.9606 23.9872 11.3572 23.9872C8.85007 23.9872 8.85007 21.8624 8.85007 21.0623V20.6825H5.52757V19.0753H10.4038V21.0623C10.4038 22.1831 10.5463 22.3801 11.3572 22.3801C12.3779 22.3801 12.4069 22.1926 12.4069 21.0623C12.4069 19.7863 11.9301 19.3072 10.0511 17.9669L7.22963 15.9442C7.08719 15.8413 6.95136 15.7445 6.81983 15.6507C5.02213 14.3699 3.72317 13.4445 3.72317 9.69365L3.72286 9.39631C3.7192 6.35769 3.715 2.93312 8.38248 2.41683V0.37793H14.4283V2.39734C18.9062 2.74462 18.9015 5.29273 18.8955 8.47554L18.8951 11.0509H12.1506V8.35801C12.1506 8.11376 12.135 7.97601 12.1215 7.90246C11.9621 7.87805 11.6439 7.8791 11.3789 7.87861L11.2611 7.87878C10.7559 7.87878 10.5961 7.94926 10.5961 9.42846C10.5961 10.7009 10.9958 11.0257 12.6895 12.1966C12.8523 12.3093 13.0234 12.4277 13.203 12.5534L16.5334 14.8721C18.4611 16.2014 19.4401 18.1175 19.4401 20.5652C19.4401 22.4604 19.299 24.6148 17.6155 26.1978C16.4575 27.3035 15.786 27.6959 14.4283 27.9272V30.3779Z" fill="#1f2937"/>
</g>
<path fill-rule="evenodd" clip-rule="evenodd" d="M3.53947 18.4506C3.46953 18.4506 3.39866 18.4562 3.32748 18.468C2.59502 18.5884 2.09379 19.3029 2.21014 20.0606C2.26652 20.4277 2.45772 20.7501 2.7486 20.9684C3.0394 21.1867 3.39515 21.2746 3.74982 21.2164C4.48243 21.0959 4.98367 20.3815 4.86731 19.6237V19.6237C4.7621 18.9396 4.1889 18.4506 3.53947 18.4506M3.53177 22.7163C2.95055 22.7163 2.38577 22.5278 1.90619 22.1679C1.30573 21.7171 0.910885 21.0514 0.794455 20.2934C0.55404 18.7287 1.58898 17.2534 3.10172 17.0046C4.61399 16.755 6.04059 17.8265 6.28116 19.3912V19.3913C6.39766 20.1492 6.22181 20.9087 5.786 21.53C5.35018 22.1511 4.70666 22.5596 3.97381 22.68C3.82615 22.7043 3.67842 22.7163 3.53177 22.7163" fill="#f97316"/>
</svg>