<svg width="31" height="15" viewBox="0 0 31 29" fill="none" xmlns="http://www.w3.org/2000/svg">
<g clip-path="url(#clip0_237_34272)">
<path d="M20.3075 17.6355H9.93945V7.23169H20.3075V17.6328V17.6355ZM10.8633 16.706H19.381V8.16111H10.8659V16.706H10.8633Z" fill="#f97316"/>
<path d="M15.5788 7.69653H14.6523V10.772H15.5788V7.69653Z" fill="#f97316"/>
<path d="M4.76502 29L4.10401 22.2904L3.92444 21.7213L3.32068 29H0V7.3701L3.52367 6.24487L6.27442 7.18996L8.1976 10.9129L13.1474 11.777V14.4504L7.18006 14.3721L6.13389 13.5758L6.26922 15.5574L8.14816 20.9355V29.0026H4.76502V29ZM3.39095 16.9593L5.01745 22.1025L5.6056 28.0706H7.2217V21.0921L5.35317 15.7427L5.07211 11.5943L7.49756 13.4427L12.2235 13.5053V12.555L7.59124 11.7457L5.62642 7.94446L3.51586 7.21868L0.929062 8.04367V28.0706H2.46969L3.39355 16.9593H3.39095Z" fill="#1f2937"/>
<path d="M3.56971 5.66529C2.81501 5.66529 2.10716 5.37027 1.57366 4.83507C1.04017 4.29987 0.746094 3.58976 0.746094 2.83264C0.746094 2.07553 1.04017 1.36541 1.57366 0.830213C2.10716 0.295013 2.81501 0 3.56971 0C4.32441 0 5.03227 0.295013 5.56576 0.830213C6.09926 1.36541 6.39333 2.07553 6.39333 2.83264C6.39333 3.58976 6.09926 4.29987 5.56576 4.83507C5.03227 5.37027 4.32441 5.66529 3.56971 5.66529ZM3.56971 0.92942C2.52354 0.92942 1.67255 1.78313 1.67255 2.83264C1.67255 3.88216 2.52354 4.73587 3.56971 4.73587C4.61588 4.73587 5.46687 3.88216 5.46687 2.83264C5.46687 1.78313 4.61588 0.92942 3.56971 0.92942V0.92942Z" fill="#1f2937"/>
<path d="M26.9419 28.9999L26.3382 21.7212L26.1586 22.2904L25.4976 28.9999H22.1145V20.9328L23.9934 15.5547L24.1287 13.5731L23.0826 14.3694L17.1152 14.4477V11.7743L22.0624 10.9102L23.9856 7.18727L26.7364 6.24219L30.26 7.36741V28.9999H26.9419ZM23.0409 28.0705H24.657L25.2452 22.1024L26.8717 16.9592L27.7955 28.0705H29.3362V8.04881L26.7494 7.22382L24.6388 7.94961L22.674 11.7508L18.0417 12.5602V13.5105L22.7677 13.4478L25.1931 11.5994L24.9121 15.7479L23.0435 21.0972V28.0757L23.0409 28.0705Z" fill="#1f2937"/>
<path d="M26.6889 5.66529C25.9342 5.66529 25.2263 5.37027 24.6928 4.83507C24.1593 4.29987 23.8652 3.58976 23.8652 2.83264C23.8652 2.07553 24.1593 1.36541 24.6928 0.830213C25.2263 0.295013 25.9342 0 26.6889 0C27.4436 0 28.1514 0.295013 28.6849 0.830213C29.2184 1.36541 29.5125 2.07553 29.5125 2.83264C29.5125 3.58976 29.2184 4.29987 28.6849 4.83507C28.1514 5.37027 27.4436 5.66529 26.6889 5.66529ZM26.6889 0.92942C25.6427 0.92942 24.7917 1.78313 24.7917 2.83264C24.7917 3.88216 25.6427 4.73587 26.6889 4.73587C27.735 4.73587 28.586 3.88216 28.586 2.83264C28.586 1.78313 27.735 0.92942 26.6889 0.92942V0.92942Z" fill="#1f2937"/>
<path d="M29.207 1.74146H22.334V2.67088H29.207V1.74146Z" fill="#1f2937"/>
</g>
<defs>
<clipPath id="clip0_237_34272">
<rect width="30.2609" height="29" fill="white"/>
</clipPath>
</defs>
</svg>
