<svg width="72" height="16" viewBox="0 0 72 16" fill="none" xmlns="http://www.w3.org/2000/svg">
<g clip-path="url(#clip0_1_5964)">
<path d="M21.2134 0V0.842809L20.0769 0.481605L18 1.12375V9.99331H21.2134V12H72V0H21.2134ZM19.0189 8.94983V1.88629L19.5675 1.72575V5.33779H20.5864V1.72575L21.2134 1.92642V8.94983H19.0189ZM70.9811 10.9565H22.2322V1.04348H70.9811V10.9565Z" fill="#1f2937"/>
<path d="M21.7014 13.6178C22.0862 13.6178 22.394 13.9354 22.394 14.3324C22.394 14.7295 22.0862 15.0471 21.7014 15.0471C21.3166 15.0471 21.0088 14.7295 21.0088 14.3324C21.0088 13.9354 21.3166 13.6178 21.7014 13.6178ZM21.7014 12.6252C20.8164 12.6252 20.0853 13.3796 20.0853 14.2927C20.0853 15.2059 20.8164 15.9602 21.7014 15.9602C22.5864 15.9602 23.3174 15.2059 23.3174 14.2927C23.3174 13.3796 22.5864 12.6252 21.7014 12.6252Z" fill="#f97316"/>
<path d="M25.8955 13.6178C26.2803 13.6178 26.5881 13.9354 26.5881 14.3324C26.5881 14.7295 26.2803 15.0471 25.8955 15.0471C25.5107 15.0471 25.2029 14.7295 25.2029 14.3324C25.2414 13.9354 25.5492 13.6178 25.8955 13.6178ZM25.8955 12.6252C25.0105 12.6252 24.2794 13.3796 24.2794 14.2927C24.2794 15.2059 25.0105 15.9602 25.8955 15.9602C26.7805 15.9602 27.5115 15.2059 27.5115 14.2927C27.55 13.3796 26.8189 12.6252 25.8955 12.6252Z" fill="#f97316"/>
<path d="M62.5261 13.6178C62.9109 13.6178 63.2187 13.9354 63.2187 14.3324C63.2187 14.7295 62.9109 15.0471 62.5261 15.0471C62.1413 15.0471 61.8335 14.7295 61.8335 14.3324C61.8335 13.9354 62.1413 13.6178 62.5261 13.6178ZM62.5261 12.6252C61.6411 12.6252 60.91 13.3796 60.91 14.2927C60.91 15.2059 61.6411 15.9602 62.5261 15.9602C63.4111 15.9602 64.1422 15.2059 64.1422 14.2927C64.1422 13.3796 63.4111 12.6252 62.5261 12.6252Z" fill="#f97316"/>
<path d="M66.7201 13.6178C67.1048 13.6178 67.4127 13.9354 67.4127 14.3324C67.4127 14.7295 67.1048 15.0471 66.7201 15.0471C66.3353 15.0471 66.0275 14.7295 66.0275 14.3324C66.0659 13.9354 66.3353 13.6178 66.7201 13.6178ZM66.7201 12.6252C65.8351 12.6252 65.104 13.3796 65.104 14.2927C65.104 15.2059 65.8351 15.9602 66.7201 15.9602C67.6051 15.9602 68.3361 15.2059 68.3361 14.2927C68.3746 13.3796 67.6435 12.6252 66.7201 12.6252Z" fill="#f97316"/>
<path d="M4.77121 13.6178C5.15599 13.6178 5.46381 13.9354 5.46381 14.3324C5.46381 14.7295 5.15599 15.0471 4.77121 15.0471C4.38643 15.0471 4.07861 14.6898 4.07861 14.2927C4.07861 13.9354 4.38643 13.6178 4.77121 13.6178ZM4.77121 12.6252C3.88623 12.6252 3.15515 13.3796 3.15515 14.2927C3.15515 15.2059 3.88623 15.9602 4.77121 15.9602C5.65619 15.9602 6.38727 15.2059 6.38727 14.2927C6.38727 13.3796 5.65619 12.6252 4.77121 12.6252Z" fill="#f97316"/>
<path d="M19.3542 13.459H7.00293V14.4912H19.3542V13.459Z" fill="#1f2937"/>
<path d="M19.3542 11.6328H7.00293V12.6651H19.3542V11.6328Z" fill="#1f2937"/>
<path d="M16.5454 10.9182V1.38969L16.5069 0.675049H16.0452C10.6583 0.675049 6.42576 5.1614 6.27185 5.32021L6.15641 5.39961L5.38686 8.09937L0 9.36984V14.4517H2.61648V13.4195H1.00042V10.1639L5.84859 9.01252H10.6198L10.4274 6.74949H15.5449V10.8785H16.5454V10.9182ZM9.50397 8.01996H6.42576L6.77206 6.78919H9.35005L9.50397 8.01996ZM7.23379 5.75693C8.19573 4.84378 11.5433 1.94552 15.5449 1.70731V5.75693H7.23379Z" fill="#1f2937"/>
<circle cx="45.8655" cy="8" r="8" fill="#004986" fill-opacity="0.8"/>
<g clip-path="url(#clip1_1_5964)">
<path d="M53 7.6106H39V8.38938H53V7.6106Z" fill="white"/>
<path d="M46.3894 1H45.6106V15H46.3894V1Z" fill="white"/>
<path d="M51.0802 9.72951L49.3596 7.99083L51.0802 6.27026L51.6416 6.8136L50.4644 7.99083L51.6416 9.16806L51.0802 9.72951Z" fill="white"/>
<path d="M40.793 9.72951L40.2496 9.16806L41.4269 7.99083L40.2496 6.8136L40.793 6.27026L42.5317 7.99083L40.793 9.72951Z" fill="white"/>
<path d="M44.7774 13.6961L44.2159 13.1346L45.9365 11.4141L47.6752 13.1346L47.1137 13.6961L45.9365 12.5188L44.7774 13.6961Z" fill="white"/>
<path d="M45.9365 4.58597L44.2159 2.84729L44.7774 2.30396L45.9365 3.48119L47.1137 2.30396L47.6752 2.84729L45.9365 4.58597Z" fill="white"/>
<path d="M41.3272 2.7711L40.7765 3.32178L50.6759 13.2212L51.2266 12.6705L41.3272 2.7711Z" fill="white"/>
<path d="M50.6759 2.77126L40.7765 12.6707L41.3272 13.2213L51.2266 3.32194L50.6759 2.77126Z" fill="white"/>
<path d="M49.1604 12.8267H48.3635V10.3635H50.8267V11.1604H49.1604V12.8267Z" fill="white"/>
<path d="M43.546 5.54585H41.101V4.76707H42.7672V3.10083H43.546V5.54585Z" fill="white"/>
<path d="M43.546 12.8267H42.7672V11.1604H41.101V10.3635H43.546V12.8267Z" fill="white"/>
<path d="M50.8267 5.54585H48.3635V3.10083H49.1604V4.76707H50.8267V5.54585Z" fill="white"/>
</g>
</g>
<defs>
<clipPath id="clip0_1_5964">
<rect width="72" height="16" fill="white"/>
</clipPath>
<clipPath id="clip1_1_5964">
<rect width="14" height="14" fill="white" transform="translate(39 1)"/>
</clipPath>
</defs>
</svg>
