<svg width="40" height="16" viewBox="0 0 40 22" fill="none" xmlns="http://www.w3.org/2000/svg">
<g clip-path="url(#clip0_376_38085)">
<path d="M3.71731 17.6097C1.66847 17.6097 0 15.9412 0 13.8924C0 11.8435 1.66847 10.175 3.71731 10.175C5.76616 10.175 7.43462 11.8435 7.43462 13.8924C7.43462 15.9412 5.76616 17.6097 3.71731 17.6097ZM3.71731 12.4141C2.90469 12.4141 2.24768 13.0711 2.24768 13.8837C2.24768 14.6963 2.90469 15.362 3.71731 15.362C4.52993 15.362 5.18695 14.6963 5.18695 13.8837C5.18695 13.0711 4.52993 12.4141 3.71731 12.4141V12.4141Z" fill="#f97316"/>
<path d="M21.3106 13.2872C18.501 13.2872 16.2188 10.9963 16.2188 8.18668C16.2188 5.37708 18.501 3.08618 21.3106 3.08618C24.1202 3.08618 26.4111 5.36844 26.4111 8.18668C26.4111 11.0049 24.1288 13.2872 21.3106 13.2872ZM21.3106 5.22147C19.6767 5.22147 18.3368 6.55279 18.3368 8.19532C18.3368 9.83786 19.6681 11.1692 21.3106 11.1692C22.9531 11.1692 24.2845 9.83786 24.2845 8.19532C24.2845 6.55279 22.9531 5.22147 21.3106 5.22147Z" fill="#1f2937"/>
<path d="M39.8279 10.1318C37.9433 5.9477 33.6381 2.70586 28.2264 1.10655C28.2091 1.08061 28.1313 1.08061 28.1313 1.08061C25.7367 0.380376 23.1345 0 20.4287 0C12.5013 0 5.23957 3.32829 1.91992 8.4893L3.51923 9.51805C5.3606 6.65658 8.60244 4.42619 12.5272 3.1381C11.9826 4.08904 11.5849 5.12643 11.3775 6.23298C10.3487 11.6274 13.8931 16.8576 19.2875 17.8863C19.9186 18.0073 20.5411 18.0679 21.1635 18.0679C25.8404 18.0679 30.0245 14.7396 30.9409 9.97623C31.3472 7.86687 31.0446 5.73158 30.1456 3.83834C33.6986 5.36849 36.5082 7.70262 37.9173 10.5209C35.3671 15.6214 28.261 19.1398 20.4373 19.1398C16.0803 19.1398 11.8529 18.0679 8.51599 16.1141L7.5564 17.7566C11.17 19.8746 15.7431 21.0417 20.4373 21.0417C29.3243 21.0417 37.122 16.97 39.8365 10.9099L40.0094 10.5209L39.8365 10.1318H39.8279ZM28.8402 9.57856C28.0276 13.8232 23.9126 16.6069 19.6766 15.8029C15.4319 14.9903 12.6483 10.8753 13.4522 6.63929C13.7634 5.03998 14.5415 3.59628 15.7086 2.47244C15.7086 2.47244 15.8296 2.37735 15.9333 2.30819C17.3857 2.05749 18.8899 1.91053 20.4287 1.91053C22.6504 1.91053 24.803 2.20445 26.8259 2.72315C28.5635 4.55587 29.3243 7.09747 28.8488 9.57856H28.8402Z" fill="#1f2937"/>
</g>
<defs>
<clipPath id="clip0_376_38085">
<rect width="40" height="21.0417" fill="white"/>
</clipPath>
</defs>
</svg>
