<svg width="25" height="16" viewBox="0 0 25 16" fill="none" xmlns="http://www.w3.org/2000/svg">
<g clip-path="url(#clip0_34_5899)">
<path d="M0.936035 0H24.936V16H0.936035V0Z" fill="white"/>
<path d="M0.936035 0H24.936V1.23041H0.936035V0ZM0.936035 2.46082H24.936V3.69123H0.936035V2.46082ZM0.936035 4.92164H24.936V6.15205H0.936035V4.92164ZM0.936035 7.38246H24.936V8.61287H0.936035V7.38246ZM0.936035 9.84795H24.936V11.0784H0.936035V9.84795ZM0.936035 12.3088H24.936V13.5392H0.936035V12.3088ZM0.936035 14.7696H24.936V16H0.936035V14.7696Z" fill="#D80027"/>
<path d="M0.936035 0H12.936V8.61287H0.936035V0Z" fill="#2E52B2"/>
<path d="M3.1723 6.49827L2.98517 5.89944L2.77932 6.49827H2.16177L2.66236 6.8585L2.47522 7.45733L2.98517 7.08774L3.48107 7.45733L3.28926 6.8585L3.7992 6.49827H3.1723ZM5.80622 6.49827L5.61441 5.89944L5.41791 6.49827H4.80037L5.30096 6.8585L5.11382 7.45733L5.61441 7.08774L6.11967 7.45733L5.93253 6.8585L6.43312 6.49827H5.80622ZM8.44949 6.49827L8.24832 5.89944L8.06119 6.49827H7.42961L7.94423 6.8585L7.74774 7.45733L8.24832 7.08774L8.76294 7.45733L8.56645 6.8585L9.06704 6.49827H8.44949ZM11.0787 6.49827L10.8916 5.89944L10.6951 6.49827H10.0729L10.5781 6.8585L10.391 7.45733L10.8916 7.08774L11.3969 7.45733L11.1957 6.8585L11.7103 6.49827H11.0787ZM5.61441 3.52283L5.41791 4.12166H4.80037L5.30096 4.49125L5.11382 5.08072L5.61441 4.71581L6.11967 5.08072L5.93253 4.49125L6.43312 4.12166H5.80622L5.61441 3.52283ZM2.98517 3.52283L2.77932 4.12166H2.16177L2.66236 4.49125L2.47522 5.08072L2.98517 4.71581L3.48107 5.08072L3.28926 4.49125L3.7992 4.12166H3.1723L2.98517 3.52283ZM8.24832 3.52283L8.06119 4.12166H7.42961L7.94423 4.49125L7.74774 5.08072L8.24832 4.71581L8.76294 5.08072L8.56645 4.49125L9.06704 4.12166H8.44949L8.24832 3.52283ZM10.8916 3.52283L10.6951 4.12166H10.0729L10.5781 4.49125L10.391 5.08072L10.8916 4.71581L11.3969 5.08072L11.1957 4.49125L11.7103 4.12166H11.0787L10.8916 3.52283ZM2.98517 1.15558L2.77932 1.74505H2.16177L2.66236 2.11464L2.47522 2.7088L2.98517 2.3392L3.48107 2.7088L3.28926 2.11464L3.7992 1.74505H3.1723L2.98517 1.15558ZM5.61441 1.15558L5.41791 1.74505H4.80037L5.30096 2.11464L5.11382 2.7088L5.61441 2.3392L6.11967 2.7088L5.93253 2.11464L6.43312 1.74505H5.80622L5.61441 1.15558ZM8.24832 1.15558L8.06119 1.74505H7.42961L7.94423 2.11464L7.74774 2.7088L8.24832 2.3392L8.76294 2.7088L8.56645 2.11464L9.06704 1.74505H8.44949L8.24832 1.15558ZM10.8916 1.15558L10.6951 1.74505H10.0729L10.5781 2.11464L10.391 2.7088L10.8916 2.3392L11.3969 2.7088L11.1957 2.11464L11.7103 1.74505H11.0787L10.8916 1.15558Z" fill="white"/>
</g>
<defs>
<clipPath id="clip0_34_5899">
<rect width="24" height="16" fill="white" transform="translate(0.936035)"/>
</clipPath>
</defs>
</svg>
