<svg width="31" height="16" viewBox="0 0 31 30" fill="none" xmlns="http://www.w3.org/2000/svg">
<path fill-rule="evenodd" clip-rule="evenodd" d="M0 24.3478V30H25.1204V25.5205H1.20933H29.6602H25.1204V30H30.8696V24.3478H0Z" fill="#1f2937"/>
<path fill-rule="evenodd" clip-rule="evenodd" d="M14.7825 12.1738H11.0311V13.3931H13.5769V22.259H3.37949V13.3931H6.05706V12.1738H2.17383V23.4782H14.7825V12.1738Z" fill="#1f2937"/>
<path fill-rule="evenodd" clip-rule="evenodd" d="M28.261 12.1738H24.4437V13.3931H27.0554V22.259H16.8579V13.3931H19.4696V12.1738H15.6523V23.4782H28.261V12.1738Z" fill="#1f2937"/>
<path fill-rule="evenodd" clip-rule="evenodd" d="M11.0311 0V1.21922H13.5769V10.0851H3.37949V1.21922H6.05706V0H2.17383V11.3043H14.7825V0H11.0311Z" fill="#1f2937"/>
<path fill-rule="evenodd" clip-rule="evenodd" d="M24.4437 0V1.21922H27.0554V10.0851H16.8579V1.21922H19.4696V0H15.6523V11.3043H28.261V0H24.4437Z" fill="#1f2937"/>
<path fill-rule="evenodd" clip-rule="evenodd" d="M10.0013 13.4783H7.39258V17.3913L10.0013 16.354V13.4783Z" fill="#FEFEFE"/>
<path fill-rule="evenodd" clip-rule="evenodd" d="M7.35205 13.397H10.0404V16.2821L7.35205 17.3227V13.397ZM6.08789 19.1304L11.3053 17.1102V13.3969V12.1738H6.08789V13.3969V19.1304Z" fill="#f97316"/>
<path fill-rule="evenodd" clip-rule="evenodd" d="M23.4778 16.5217V13.4783H20.8691V16.5217L22.1735 16.0207L23.4778 16.5217Z" fill="#FEFEFE"/>
<path fill-rule="evenodd" clip-rule="evenodd" d="M20.8307 13.3765H23.5191V16.4843L22.1749 15.9726L20.8307 16.4843V13.3765ZM19.5664 18.2609L22.1751 17.2683L24.7838 18.2609V13.3765V12.174H19.5664V13.3765V18.2609Z" fill="#f97316"/>
<path fill-rule="evenodd" clip-rule="evenodd" d="M23.4778 1.30432H20.8691V4.18024L23.4778 5.21736V1.30432Z" fill="#FEFEFE"/>
<path fill-rule="evenodd" clip-rule="evenodd" d="M19.5664 0V1.22307V4.93639L24.7838 6.95652V1.22307V0H19.5664ZM20.8307 4.10831V1.22306H23.519V5.14889L20.8307 4.10831Z" fill="#f97316"/>
<path fill-rule="evenodd" clip-rule="evenodd" d="M10.0013 4.3478V1.30432H7.39258V4.3478L8.69692 3.8467L10.0013 4.3478Z" fill="#FEFEFE"/>
<path fill-rule="evenodd" clip-rule="evenodd" d="M6.08789 0V1.20256V6.08696L8.69659 5.09433L11.3053 6.08696V1.20256V0H6.08789ZM7.35205 1.20254H10.0403V4.31023L8.69618 3.79854L7.35205 4.31023V1.20254Z" fill="#f97316"/>
</svg>
