<?xml version="1.0" encoding="UTF-8"?>
<svg width="85px" height="85px" viewBox="0 0 85 85" version="1.1" xmlns="http://www.w3.org/2000/svg" xmlns:xlink="http://www.w3.org/1999/xlink">
    <!-- Generator: Sketch 51.2 (57519) - http://www.bohemiancoding.com/sketch -->
    <title>additional-services-icon-85x85</title>
    <desc>Created with Sketch.</desc>
    <defs></defs>
    <g id="additional-services-icon-85x85" stroke="none" stroke-width="1" fill="none" fill-rule="evenodd">
        <g id="Group-11" transform="translate(5.000000, 12.000000)">
            <path d="M30.0461538,51.5076923 C27.1530543,51.5076923 24.8,53.8613971 24.8,56.7534269 C24.8,59.6462952 27.1530543,62 30.0461538,62 C32.9392534,62 35.2923077,59.6462952 35.2923077,56.7534269 C35.2923077,53.8613971 32.9392534,51.5076923 30.0461538,51.5076923 M30.0461538,54.5649091 C31.254547,54.5649091 32.234008,55.5451303 32.234008,56.7534269 C32.234008,57.9617235 31.254547,58.9411062 30.0461538,58.9411062 C28.8377607,58.9411062 27.8574611,57.9617235 27.8574611,56.7534269 C27.8574611,55.5451303 28.8377607,54.5649091 30.0461538,54.5649091" id="Fill-1" fill="#f97316"></path>
            <path d="M62.4769231,51.5076923 C59.5838235,51.5076923 57.2307692,53.8613971 57.2307692,56.7534269 C57.2307692,59.6462952 59.5838235,62 62.4769231,62 C65.3700226,62 67.7230769,59.6462952 67.7230769,56.7534269 C67.7230769,53.8613971 65.3700226,51.5076923 62.4769231,51.5076923 M62.4769231,54.5649091 C63.6853163,54.5649091 64.6647772,55.5451303 64.6647772,56.7534269 C64.6647772,57.9617235 63.6853163,58.9411062 62.4769231,58.9411062 C61.2685299,58.9411062 60.289069,57.9617235 60.289069,56.7534269 C60.289069,55.5451303 61.2685299,54.5649091 62.4769231,54.5649091" id="Fill-4" fill="#f97316"></path>
            <path d="M49.6308847,29.0376383 L39.5684316,35.4989605 L32.1165001,35.4989605 L45.0370617,3.13983239 L67.3911188,3.13983239 L67.3911188,29.0376383 L49.6308847,29.0376383 Z M70.5593624,29.0376383 L70.5593624,0 L42.88349,0 L28.7093568,35.4989605 L19.0769231,35.4989605 L19.0769231,58.1846154 L22.2451667,58.1846154 L22.2451667,38.6379319 L40.5040495,38.6379319 L50.5665026,32.1766097 L71.2317563,32.1766097 L71.2317563,42.8091653 L39.3764432,42.8091653 L39.3764432,45.9489976 L71.2317563,45.9489976 L71.2317563,58.1846154 L74.4,58.1846154 L74.4,29.0376383 L70.5593624,29.0376383 Z" id="Fill-7" fill="#1f2937"></path>
            <polygon id="Fill-10" fill="#1f2937" points="12.0200947 55.0627801 0 55.0627801 0 58.1846154 15.2615385 58.1846154 15.2615385 1.90769231 12.0200947 1.90769231"></polygon>
            <polygon id="Fill-12" fill="#1f2937" points="39.1076923 58.1846154 53.4153846 58.1846154 53.4153846 55.3230769 39.1076923 55.3230769"></polygon>
        </g>
    </g>
</svg>