<svg width="100" height="100" viewBox="0 0 100 100" fill="none" xmlns="http://www.w3.org/2000/svg">
<g id="icon/main/dimension">
<g id="Group 12">
<path id="Fill 1" fill-rule="evenodd" clip-rule="evenodd" d="M31.3268 74H28.5376H24.7186H21.9294V75.1236V77.1089H28.5376V83H31.3268V77.1089H39.2293V79.5232H42.0184V77.1089H50.1294V79.5232H52.9184V77.1089H61.823V79.5232H64.612V77.1089H71.7217V83H74.5108V77.1089H80.9419V79.5232H83.731V74H31.3268Z" fill="#111827"/>
<path id="Fill 2" fill-rule="evenodd" clip-rule="evenodd" d="M19.4144 15V17.7807H21.8212V24.1921H15.9487V26.9729H21.8212V34.0611H19.4144V36.8418H21.8212V45.7193H19.4144V48.5H21.8212V56.5863H19.4144V59.3672H21.8212V67.2458H15.9487V70.0263H21.8212V77L24.9199 74.2193V70.0263V68.636V15H19.4144Z" fill="#f97316"/>
<g id="Group 11">
<path id="Fill 3" fill-rule="evenodd" clip-rule="evenodd" d="M74.1407 63.2488C73.6896 63.3477 73.2218 63.4014 72.7415 63.4014C72.2612 63.4014 71.7934 63.3477 71.3424 63.2488V67.1889H30.8149V26.8379H43.1553V24.0368H28.0166V69.9898H74.1407V63.2488Z" fill="#111827"/>
<path id="Fill 5" fill-rule="evenodd" clip-rule="evenodd" d="M71.3422 26.838V48.7774C71.7933 48.6787 72.2609 48.6251 72.7412 48.6251C73.2215 48.6251 73.6895 48.6787 74.1405 48.7776V24.0369H59.2598V26.838H71.3422Z" fill="#111827"/>
<path id="Fill 7" fill-rule="evenodd" clip-rule="evenodd" d="M45.9534 26.838H56.4617V38.8749L51.2081 36.7701L45.9534 38.8749V26.838ZM43.1553 43.0132L51.2081 39.7865L59.26 43.0132V26.838V24.0369H43.1553V26.838V43.0132Z" fill="#f97316"/>
<path id="Fill 9" fill-rule="evenodd" clip-rule="evenodd" d="M74.8014 56.0132C74.8014 57.17 73.8653 58.1071 72.7097 58.1071C71.56 58.1071 70.6237 57.17 70.6237 56.0132C70.6237 54.8565 71.56 53.9192 72.7097 53.9192C73.8653 53.9192 74.8014 54.8565 74.8014 56.0132ZM67.6963 56.0132C67.6963 58.7775 69.948 61.0316 72.7097 61.0316C75.4771 61.0316 77.7288 58.7775 77.7288 56.0132C77.7288 53.2429 75.4771 50.9948 72.7097 50.9948C69.948 50.9948 67.6963 53.2429 67.6963 56.0132Z" fill="#f97316"/>
</g>
</g>
</g>
</svg>
