<?xml version="1.0" encoding="UTF-8"?>
<svg width="85px" height="41px" viewBox="0 0 85 61" version="1.1" xmlns="http://www.w3.org/2000/svg" xmlns:xlink="http://www.w3.org/1999/xlink">
    <!-- Generator: Sketch 51.3 (57544) - http://www.bohemiancoding.com/sketch -->
    <title>freight-class-85x85</title>
    <desc>Created with Sketch.</desc>
    <defs>
        <polygon id="path-1" points="0.000226666667 0.287866667 84.2848667 0.287866667 84.2848667 60.06644 0.000226666667 60.06644"></polygon>
    </defs>
    <g id="Mobile" stroke="none" stroke-width="1" fill="none" fill-rule="evenodd">
        <g id="13-Freight-class" transform="translate(-145.000000, -82.000000)">
            <g id="freight-class-85x85" transform="translate(145.000000, 82.000000)">
                <path d="M70.4293,39.4614492 C67.7829667,39.4614492 65.6307667,41.6147825 65.6307667,44.2577158 C65.6307667,46.9029158 67.7829667,49.0573825 70.4293,49.0573825 C73.0745,49.0573825 75.2255667,46.9029158 75.2255667,44.2577158 C75.2255667,41.6147825 73.0745,39.4614492 70.4293,39.4614492 M70.4293,42.2573825 C71.5343,42.2573825 72.4285,43.1538492 72.4285,44.2577158 C72.4285,45.3627158 71.5343,46.2591825 70.4293,46.2591825 C69.3243,46.2591825 68.4267,45.3627158 68.4267,44.2577158 C68.4267,43.1538492 69.3243,42.2573825 70.4293,42.2573825" id="Fill-1" fill="#f97316"></path>
                <g id="Group-5" transform="translate(0.000000, 0.003996)">
                    <mask id="mask-2" fill="white">
                        <use xlink:href="#path-1"></use>
                    </mask>
                    <g id="Clip-4"></g>
                    <path d="M45.08536,25.8409067 L70.16376,15.2385733 L78.8212933,23.5969067 L51.89896,35.2781733 L45.08536,25.8409067 Z M32.38636,35.2781733 L5.46516,23.5969067 L14.43776,14.93144 L39.4424933,25.5043067 L32.38636,35.2781733 Z M28.81976,3.29097333 L36.1818933,4.02990667 L15.3296933,11.9859067 L9.78656,10.6111733 L28.81976,3.29097333 Z M42.6622933,23.6671733 L19.0968933,13.7017733 L42.6622933,4.70990667 L66.2288267,13.7017733 L42.6622933,23.6671733 Z M55.4678267,3.29210667 L74.49876,10.6111733 L69.5868933,11.83064 L48.98516,3.96870667 L55.4678267,3.29210667 Z M73.11496,13.9907733 L73.11496,13.98964 L84.2850933,11.2175067 L55.86676,0.28764 L42.8912267,1.64310667 L42.6622933,1.55584 L42.32796,1.68390667 L28.4174267,0.288773333 L0.000226666667,11.2175067 L11.1692267,13.9907733 L0.243893333,24.5421067 L12.00676,29.64664 L12.00676,45.6243733 L41.02916,59.4839067 L42.03216,60.06644 L65.3368933,49.0187067 L64.0754933,46.3565067 L42.1466267,56.75144 L14.9522933,43.7645733 L14.9522933,30.92504 L33.38936,38.9263733 L40.4352933,29.1627067 L40.4352933,52.18524 L43.47036,53.6223067 L43.47036,28.63684 L50.8982267,38.9263733 L69.33416,30.9239067 L69.33416,37.7239067 L72.2808267,37.7239067 L72.2808267,29.6455067 L84.04256,24.5421067 L73.11496,13.9907733 Z" id="Fill-3" fill="#111827" mask="url(#mask-2)"></path>
                </g>
            </g>
        </g>
    </g>
</svg>