<svg width="16" height="14" viewBox="0 0 16 14" fill="none" xmlns="http://www.w3.org/2000/svg">
<mask id="path-1-inside-1_161_2243" fill="white">
<path d="M15 4.9765H1V6.04317H15V4.9765Z"/>
</mask>
<path d="M1 4.9765V2.9765H-1V4.9765H1ZM15 4.9765H17V2.9765H15V4.9765ZM15 6.04317V8.04317H17V6.04317H15ZM1 6.04317H-1V8.04317H1V6.04317ZM1 6.9765H15V2.9765H1V6.9765ZM13 4.9765V6.04317H17V4.9765H13ZM15 4.04317H1V8.04317H15V4.04317ZM3 6.04317V4.9765H-1V6.04317H3Z" fill="#1f2937" mask="url(#path-1-inside-1_161_2243)"/>
<mask id="path-3-inside-2_161_2243" fill="white">
<path d="M15 9.24316H1V10.3098H15V9.24316Z"/>
</mask>
<path d="M1 9.24316V7.24316H-1V9.24316H1ZM15 9.24316H17V7.24316H15V9.24316ZM15 10.3098V12.3098H17V10.3098H15ZM1 10.3098H-1V12.3098H1V10.3098ZM1 11.2432H15V7.24316H1V11.2432ZM13 9.24316V10.3098H17V9.24316H13ZM15 8.30983H1V12.3098H15V8.30983ZM3 10.3098V9.24316H-1V10.3098H3Z" fill="#1f2937" mask="url(#path-3-inside-2_161_2243)"/>
<mask id="path-5-inside-3_161_2243" fill="white">
<path d="M7.46667 0.709843L7.46667 12.4432L8.53334 12.4432L8.53334 0.709843L7.46667 0.709843Z"/>
</mask>
<path d="M7.46667 12.4432L5.46667 12.4432L5.46667 14.4432L7.46667 14.4432L7.46667 12.4432ZM7.46667 0.709843L7.46667 -1.29016L5.46667 -1.29016L5.46667 0.709843L7.46667 0.709843ZM8.53334 0.709843L10.5333 0.709843L10.5333 -1.29016L8.53334 -1.29016L8.53334 0.709843ZM8.53334 12.4432L8.53334 14.4432L10.5333 14.4432L10.5333 12.4432L8.53334 12.4432ZM9.46667 12.4432L9.46667 0.709843L5.46667 0.709843L5.46667 12.4432L9.46667 12.4432ZM7.46667 2.70984L8.53334 2.70984L8.53334 -1.29016L7.46667 -1.29016L7.46667 2.70984ZM6.53334 0.709843L6.53334 12.4432L10.5333 12.4432L10.5333 0.709843L6.53334 0.709843ZM8.53334 10.4432L7.46667 10.4432L7.46667 14.4432L8.53334 14.4432L8.53334 10.4432Z" fill="#1f2937" mask="url(#path-5-inside-3_161_2243)"/>
<mask id="path-7-inside-4_161_2243" fill="white">
<path d="M4.26672 2.36863L4.26672 12.5612L5.33339 12.5612L5.33339 2.36863L4.26672 2.36863Z"/>
</mask>
<path d="M4.26672 12.5612L2.26672 12.5612L2.26672 14.5612L4.26672 14.5612L4.26672 12.5612ZM4.26672 2.36863L4.26672 0.368626L2.26672 0.368626L2.26672 2.36863L4.26672 2.36863ZM5.33339 2.36863L7.33339 2.36863L7.33339 0.368626L5.33339 0.368626L5.33339 2.36863ZM5.33339 12.5612L5.33339 14.5612L7.33339 14.5612L7.33339 12.5612L5.33339 12.5612ZM6.26672 12.5612L6.26672 2.36863L2.26672 2.36863L2.26672 12.5612L6.26672 12.5612ZM4.26672 4.36863L5.33339 4.36863L5.33339 0.368626L4.26672 0.368626L4.26672 4.36863ZM3.33339 2.36863L3.33339 12.5612L7.33339 12.5612L7.33339 2.36863L3.33339 2.36863ZM5.33339 10.5612L4.26672 10.5612L4.26672 14.5612L5.33339 14.5612L5.33339 10.5612Z" fill="#1f2937" mask="url(#path-7-inside-4_161_2243)"/>
<mask id="path-9-inside-5_161_2243" fill="white">
<path d="M10.6666 2.84316L10.6666 13.5098L11.7333 13.5098L11.7333 2.84316L10.6666 2.84316Z"/>
</mask>
<path d="M10.6666 13.5098L8.66663 13.5098L8.66663 15.5098L10.6666 15.5098L10.6666 13.5098ZM10.6666 2.84316L10.6666 0.84316L8.66663 0.84316L8.66663 2.84316L10.6666 2.84316ZM11.7333 2.84316L13.7333 2.84316L13.7333 0.84316L11.7333 0.84316L11.7333 2.84316ZM11.7333 13.5098L11.7333 15.5098L13.7333 15.5098L13.7333 13.5098L11.7333 13.5098ZM12.6666 13.5098L12.6666 2.84316L8.66663 2.84316L8.66663 13.5098L12.6666 13.5098ZM10.6666 4.84316L11.7333 4.84316L11.7333 0.84316L10.6666 0.84316L10.6666 4.84316ZM9.73329 2.84316L9.73329 13.5098L13.7333 13.5098L13.7333 2.84316L9.73329 2.84316ZM11.7333 11.5098L10.6666 11.5098L10.6666 15.5098L11.7333 15.5098L11.7333 11.5098Z" fill="#1f2937" mask="url(#path-9-inside-5_161_2243)"/>
<mask id="path-11-inside-6_161_2243" fill="white">
<path d="M2 3H0V12H2V3Z"/>
</mask>
<path d="M0 3V1H-2V3H0ZM2 3H4V1H2V3ZM2 12V14H4V12H2ZM0 12H-2V14H0V12ZM0 5H2V1H0V5ZM0 3V12H4V3H0ZM2 10H0V14H2V10ZM2 12V3H-2V12H2Z" fill="#1f2937" mask="url(#path-11-inside-6_161_2243)"/>
<mask id="path-13-inside-7_161_2243" fill="white">
<path d="M2 12.9995H0V13.9995H2V12.9995Z"/>
</mask>
<path d="M0 12.9995V10.9995H-2V12.9995H0ZM2 12.9995H4V10.9995H2V12.9995ZM2 13.9995V15.9995H4V13.9995H2ZM0 13.9995H-2V15.9995H0V13.9995ZM0 14.9995H2V10.9995H0V14.9995ZM0 12.9995V13.9995H4V12.9995H0ZM2 11.9995H0V15.9995H2V11.9995ZM2 13.9995V12.9995H-2V13.9995H2Z" fill="#1f2937" mask="url(#path-13-inside-7_161_2243)"/>
<mask id="path-15-inside-8_161_2243" fill="white">
<path d="M11.7334 12.4432H4.26672V13.5098H11.7334V12.4432Z"/>
</mask>
<path d="M4.26672 12.4432V10.4432H2.26672V12.4432H4.26672ZM11.7334 12.4432H13.7334V10.4432H11.7334V12.4432ZM11.7334 13.5098V15.5098H13.7334V13.5098H11.7334ZM4.26672 13.5098H2.26672V15.5098H4.26672V13.5098ZM4.26672 14.4432H11.7334V10.4432H4.26672V14.4432ZM9.73339 12.4432V13.5098H13.7334V12.4432H9.73339ZM11.7334 11.5098H4.26672V15.5098H11.7334V11.5098ZM6.26672 13.5098V12.4432H2.26672V13.5098H6.26672Z" fill="#1f2937" mask="url(#path-15-inside-8_161_2243)"/>
<mask id="path-17-inside-9_161_2243" fill="white">
<path d="M16 3H14V12H16V3Z"/>
</mask>
<path d="M14 3V1H12V3H14ZM16 3H18V1H16V3ZM16 12V14H18V12H16ZM14 12H12V14H14V12ZM14 5H16V1H14V5ZM14 3V12H18V3H14ZM16 10H14V14H16V10ZM16 12V3H12V12H16Z" fill="#1f2937" mask="url(#path-17-inside-9_161_2243)"/>
<mask id="path-19-inside-10_161_2243" fill="white">
<path d="M16 13.0005H14V14.0005H16V13.0005Z"/>
</mask>
<path d="M14 13.0005V11.0005H12V13.0005H14ZM16 13.0005H18V11.0005H16V13.0005ZM16 14.0005V16.0005H18V14.0005H16ZM14 14.0005H12V16.0005H14V14.0005ZM14 15.0005H16V11.0005H14V15.0005ZM14 13.0005V14.0005H18V13.0005H14ZM16 12.0005H14V16.0005H16V12.0005ZM16 14.0005V13.0005H12V14.0005H16Z" fill="#1f2937" mask="url(#path-19-inside-10_161_2243)"/>
<path d="M1 0.583435C1.22931 0.583435 1.41844 0.770197 1.41844 1.00188C1.41844 1.23119 1.23168 1.42032 1 1.42032C0.770686 1.42032 0.58156 1.23355 0.58156 1.00188C0.58156 0.770197 0.768321 0.583435 1 0.583435ZM1 -0.000488281C0.449173 -0.000488281 0 0.448684 0 0.999512C0 1.55034 0.449173 1.99951 1 1.99951C1.55083 1.99951 2 1.55034 2 0.999512C2 0.448684 1.55083 -0.000488281 1 -0.000488281Z" fill="#1f2937"/>
<path d="M15 0.583436C15.2293 0.583436 15.4184 0.770197 15.4184 1.00188C15.4184 1.23119 15.2317 1.42032 15 1.42032C14.7707 1.42032 14.5816 1.23355 14.5816 1.00188C14.5816 0.770197 14.7683 0.583436 15 0.583436ZM15 -0.000488281C14.4492 -0.000488281 14 0.448684 14 0.999512C14 1.55034 14.4492 1.99951 15 1.99951C15.5508 1.99951 16 1.55034 16 0.999512C16 0.448684 15.5508 -0.000488281 15 -0.000488281Z" fill="#1f2937"/>
</svg>
