<svg width="100" height="100" viewBox="0 0 100 100" fill="none" xmlns="http://www.w3.org/2000/svg">
<path fill-rule="evenodd" clip-rule="evenodd" d="M2.99048 27.8025L19.5958 44.5443V82H80.8598V44.7801L97.6865 27.8143L94.9069 25.0128L78.0802 41.9784H59.713V45.941H76.9285V78.0366H23.5271V45.941H40.9763V41.9784H22.6103L5.77011 25L2.99048 27.8025Z" fill="#1f2937"/>
<path fill-rule="evenodd" clip-rule="evenodd" d="M52.0362 23.604L66.5542 25.3927V29.3193H52.0362V23.604ZM28.0537 39.4265C28.0537 35.8609 30.184 32.7885 33.2299 31.4259C34.3061 30.9446 35.4956 30.675 36.7474 30.675C37.881 30.675 38.9633 30.8967 39.957 31.2956C41.0779 31.7456 42.0852 32.4224 42.9209 33.2717C44.1056 34.4756 44.9451 36.0229 45.2796 37.7505C45.3848 38.2933 45.4413 38.8532 45.4413 39.4265V39.4267H49.3685C49.3685 38.9399 49.3385 38.4601 49.2852 37.9873C49.2537 37.7066 49.2118 37.4289 49.1623 37.154C48.9558 36.0089 48.5995 34.9157 48.1093 33.8988C48.0067 33.6861 47.8971 33.4776 47.7831 33.2717H48.1093H50.0731H52.0364H66.5545H68.518H70.4817H71.6674V39.3104V39.4267H75.5947V29.3193H70.4817V21.8946L48.1093 19.139V29.3193H44.3817C42.2604 27.6918 39.6147 26.7228 36.7474 26.7228C29.7881 26.7228 24.1262 32.4219 24.1262 39.4267H28.0537V39.4265Z" fill="#f97316"/>
<path fill-rule="evenodd" clip-rule="evenodd" d="M44.6412 45.6469H55.5045V58.9599L50.0727 56.7711L44.6412 58.9599V45.6469ZM40.7141 64.8002L50.0727 61.0288L59.4315 64.8002V45.6469V41.6948H40.7141V45.6469V64.8002Z" fill="#f97316"/>
</svg>
