<svg width="40" height="20" viewBox="0 0 40 28" fill="none" xmlns="http://www.w3.org/2000/svg">
<rect x="27.5" y="11" width="10.5" height="10.5" fill="#f97316"/>
<rect y="8" width="9" height="10.5" fill="#f97316"/>
<path d="M25.75 22.1667V9.91669H24V23.9167H40V22.1667H25.75Z" fill="#1f2937"/>
<path d="M34.5 23.0417L25.75 16.0417V14.2917L36.25 23.0417H34.5Z" fill="#1f2937"/>
<path d="M24.4999 20.8468H0V0H24.4999V20.8468ZM0 19.25H22.6619L22.75 1.75H0V19.25Z" fill="#1f2937"/>
<path d="M9.10847 23.8443C9.78918 23.8443 10.3338 24.3893 10.3338 25.0706C10.3338 25.7518 9.78918 26.2968 9.10847 26.2968C8.42775 26.2968 7.88318 25.7518 7.88318 25.0706C7.88318 24.3893 8.42775 23.8443 9.10847 23.8443ZM9.10847 22.1411C7.47475 22.1411 6.1814 23.4355 6.1814 25.0706C6.1814 26.7056 7.47475 28 9.10847 28C10.7422 28 12.0355 26.7056 12.0355 25.0706C12.0355 23.4355 10.7422 22.1411 9.10847 22.1411Z" fill="#f97316"/>
<path d="M16.733 23.8443C17.4137 23.8443 17.9583 24.3893 17.9583 25.0706C17.9583 25.7518 17.4137 26.2968 16.733 26.2968C16.0523 26.2968 15.5077 25.7518 15.5077 25.0706C15.5077 24.3893 16.0523 23.8443 16.733 23.8443ZM16.733 22.1411C15.0993 22.1411 13.8059 23.4355 13.8059 25.0706C13.8059 26.7056 15.0993 28 16.733 28C18.3667 28 19.6601 26.7056 19.6601 25.0706C19.6601 23.4355 18.3667 22.1411 16.733 22.1411Z" fill="#f97316"/>
</svg>
