<svg xmlns="http://www.w3.org/2000/svg" xmlns:xlink="http://www.w3.org/1999/xlink" version="1.1" x="0px" y="0px" viewBox="0 0 90 90" style="enable-background:new 0 0 90 90;" xml:space="preserve">
    <path fill="#1f2937" d="M41.8,32.1c-0.5-0.4-1.1-0.8-1.7-1.1c-2.7-1.5-5.8-2.2-9.2-1.7c-6.6,0.9-11.8,6.3-12.6,12.9c0,0.2-0.1,0.5-0.1,0.7  c-0.2,3.1,0.7,6.1,2.3,8.8l0.6,1l3.2,5.3l8.6,14l8.6-14l3.2-5.3l1-1.6c0.4-0.6,0.7-1.3,1-1.9c0.1-0.2,0.1-0.4,0.2-0.6  c0.3-0.8,0.5-1.6,0.6-2.4c0.1-0.7,0.2-1.4,0.2-2.2C47.7,39,45.4,34.7,41.8,32.1z M33,49.9c-3.4,0-6.1-2.8-6.1-6.1s2.8-6.1,6.1-6.1  c3.4,0,6.1,2.8,6.1,6.1S36.4,49.9,33,49.9z M54.9,18c-6.5,0.7-11.7,5.7-12.8,12c4.5,3,7.4,8,7.4,13.8c0,1.5-0.2,3-0.6,4.4l7.7,12.5  l8.6-14l3.2-5.3l0.7-1.2c0.9-1.4,1.6-3,1.9-4.6c0.2-1,0.3-2,0.3-3C71.2,24,63.7,17,54.9,18z M56.5,38.8c-3.4,0-6.1-2.8-6.1-6.1  c0-3.4,2.8-6.1,6.1-6.1c3.4,0,6.1,2.8,6.1,6.1C62.7,36,59.9,38.8,56.5,38.8z"/>
</svg>