<svg width="16" height="16" viewBox="0 0 16 16" fill="none" xmlns="http://www.w3.org/2000/svg">
<g clip-path="url(#clip0_161_2289)">
<path d="M11.5157 11.1899C11.7828 11.1899 11.999 11.405 11.999 11.6699C11.999 11.9351 11.7824 12.1499 11.5157 12.1499C11.2487 12.1499 11.0324 11.9348 11.0324 11.6699C11.0324 11.405 11.2487 11.1899 11.5157 11.1899ZM11.5157 10.5187C10.8764 10.5187 10.3566 11.0353 10.3566 11.6699C10.3566 12.3045 10.8768 12.8211 11.5157 12.8211C12.155 12.8211 12.6749 12.3045 12.6749 11.6699C12.6749 11.0353 12.155 10.5187 11.5157 10.5187Z" fill="#1f2937"/>
<path d="M4.48411 11.1899C4.75116 11.1899 4.96743 11.405 4.96743 11.6699C4.96743 11.9351 4.75079 12.1499 4.48411 12.1499C4.21706 12.1499 4.00079 11.9348 4.00079 11.6699C4.00079 11.405 4.21706 11.1899 4.48411 11.1899ZM4.48411 10.5187C3.8448 10.5187 3.32495 11.0353 3.32495 11.6699C3.32495 12.3045 3.8448 12.8215 4.48411 12.8215C5.12342 12.8215 5.64327 12.3048 5.64327 11.6703C5.64327 11.0357 5.12342 10.5187 4.48411 10.5187Z" fill="#1f2937"/>
<path d="M12 5H4V8L2 9V14.001H3V16H4V14H5V16H6V14H10V16H11V14H12V16H13V14L14 14.001V9L12 8.07979V5ZM11 6V8H5V6H11ZM13 9.6138V13H3V9.6138L4.5 9H11.5L13 9.6138Z" fill="#1f2937"/>
<path d="M2 2V8H3V3L7.5 3V4.0855L8.5 4.0855V3L13 3V8H14V2H2Z" fill="#1f2937"/>
<path d="M10 11H6V12H10V11Z" fill="#1f2937"/>
<line x1="15.5" y1="16" x2="15.5" stroke="#1f2937"/>
<line x1="15.5" y1="16" x2="15.5" stroke="#1f2937"/>
<line x1="15.5" y1="16" x2="15.5" stroke="#1f2937"/>
<line x1="15.5" y1="16" x2="15.5" stroke="#1f2937"/>
<line x1="15.5" y1="16" x2="15.5" stroke="#1f2937"/>
<line x1="0.5" y1="16" x2="0.5" stroke="#1f2937"/>
<line x1="0.5" y1="16" x2="0.5" stroke="#1f2937"/>
<line x1="0.5" y1="16" x2="0.5" stroke="#1f2937"/>
<line x1="0.5" y1="16" x2="0.5" stroke="#1f2937"/>
<line x1="0.5" y1="16" x2="0.5" stroke="#1f2937"/>
</g>
<defs>
<clipPath id="clip0_161_2289">
<rect width="16" height="16" fill="white"/>
</clipPath>
</defs>
</svg>
