<svg xmlns="http://www.w3.org/2000/svg" version="1.1" viewBox="-5.0 -10.0 110.0 110.0" fill="#111827">
 <path d="m74.207 21.375h-15c0.066407 1.0117 0.066407 2.0273 0 3.043v3c-0.10547 0.88281-0.25781 1.7578-0.45703 2.625-0.48438 2.5938-1.3398 5.1055-2.543 7.457h13.168c1.6562 0 3 1.3438 3 3s-1.3438 3-3 3h-15.5c-0.51172 0.007812-1.0156-0.12109-1.457-0.375-4.2227 4.8711-9.9609 8.1719-16.293 9.375-0.75 0.18359-1.5195 0.29297-2.293 0.33203-0.99609 0.066407-2 0.066407-3 0-1.0117 0.066407-2.0273 0.066407-3.0391 0v35.875c-0.007813 1.0273 0.51172 1.9883 1.375 2.543 0.44922 0.27734 0.96875 0.42188 1.5 0.41797 0.53906-0.011719 1.0703-0.15625 1.5391-0.41797l4.457-2.668h0.003907c1.668-1.0391 3.7852-1.0391 5.457 0 3.5781 2.2031 8.0898 2.2031 11.668 0 1.668-1.0391 3.7852-1.0391 5.457 0 3.5781 2.2031 8.0898 2.2031 11.668 0 1.5859-0.95703 3.5781-0.95703 5.1641 0l4.418 2.668c0.94922 0.51953 2.0938 0.51953 3.043 0 0.95312-0.53125 1.543-1.5352 1.5391-2.625v-56.207c0.003907-6.0352-4.8398-10.953-10.875-11.043zm-30.543 32.125h25.711c1.5312 0.17969 2.6875 1.4766 2.6875 3.0195s-1.1562 2.8438-2.6875 3.0234h-25.707c-1.5312-0.17969-2.6875-1.4805-2.6875-3.0234s1.1562-2.8398 2.6875-3.0195zm0 16.082h25.711c1.6562 0 3 1.3438 3 3s-1.3438 3-3 3h-25.707c-1.6562 0-3-1.3438-3-3s1.3438-3 3-3zm-12.832-29.168v0.003907c1.0078 0.003906 2.0156-0.09375 3-0.29297 3.1602-0.59766 6.0703-2.1328 8.3438-4.4062 2.2734-2.2773 3.8086-5.1836 4.4062-8.3438 0.20703-0.98828 0.30469-1.9922 0.29297-3 0.007812-1.0195-0.089844-2.0391-0.29297-3.043-0.75-3.8242-2.8672-7.2461-5.957-9.625-3.0898-2.3789-6.9375-3.5508-10.828-3.2969s-7.5586 1.918-10.312 4.6758c-2.7539 2.7617-4.4062 6.4297-4.6523 10.32-0.24609 3.8906 0.93359 7.7383 3.3203 10.824 2.3828 3.0859 5.8125 5.1953 9.6406 5.9375 1 0.19922 2.0195 0.29688 3.0391 0.28906zm-4.832-8.5391-5.168-5.332c-1.0781-1.1797-1.0781-2.9883 0-4.168 1.1641-1.1211 3.0039-1.1211 4.168 0l3.25 3.25 8.457-8.707c1.1797-1.082 2.9883-1.082 4.168 0 1.1211 1.1602 1.1211 3.0039 0 4.1641h-0.20703l-10.375 10.793c-0.56641 0.55859-1.332 0.87109-2.125 0.875h-0.375c-0.68359-0.070312-1.3203-0.37891-1.793-0.875z"/>
</svg>