<svg xmlns="http://www.w3.org/2000/svg" viewBox="-130 0 782 500" x="0px" y="0px">
    <path d="M80,432a24,24,0,1,0,24,24A24.0275,24.0275,0,0,0,80,432Zm0,32a8,8,0,1,1,8-8A7.99993,7.99993,1,80,464Z" fill="#1f2937"/>
    <path d="M320,32H184V144H320ZM248,88a8.00039,8.00039,1-8,8H208a8.00039,8.00039,1-8-8V56a8.00039,8.00039,1,8-8h32a8.00039,8.00039,1,8,8Zm24,40H256V112h16Zm32,0H288V112h16Z" fill="#f97316"/>
    <path d="M320,160H184V272H320Zm-72,56a8.00039,8.00039,1-8,8H208a8.00039,8.00039,1-8-8V184a8.00039,8.00039,1,8-8h32a8.00039,8.00039,1,8,8Zm24,40H256V240h16Zm32,0H288V240h16Z" fill="#f97316"/>
    <path d="M320,288H184V400H320Zm-72,56a8.00039,8.00039,1-8,8H208a8.00039,8.00039,1-8-8V312a8.00039,8.00039,1,8-8h32a8.00039,8.00039,1,8,8Zm24,40H256V368h16Zm32,0H288V368h16Z" fill="#f97316"/>
    <polygon points="56 232 56 192 72 192 72 232 74.584 232 88 198.459 88 176 40 176 40 198.459 53.416 232 56 232" fill="#1f2937"/>
    <rect x="56" y="248" width="16" height="128" fill="#1f2937"/>
    <path d="M336,272H472V160H336Zm104-32h16v16H440Zm-32,0h16v16H408Zm-56-56a8.00039,8.00039,1,8-8h32a8.00039,8.00039,1,8,8v32a8.00039,8.00039,1-8,8H360a8.00039,8.00039,1-8-8Z" fill="#f97316"/>
    <path d="M40,392v48h3.3501a39.98365,39.98365,0,0,1,73.2998,0H136V427.74707L93.10352,392Z" fill="#1f2937"/>
    <rect x="184" y="416" width="288" height="24" fill="#1f2937"/>
    <rect x="440" y="456" width="32" height="24" fill="#1f2937"/>
    <path d="M336,400H472V288H336Zm104-32h16v16H440Zm-32,0h16v16H408Zm-56-56a8.00039,8.00039,1,8-8h32a8.00039,8.00039,1,8,8v32a8.00039,8.00039,1-8,8H360a8.00039,8.00039,1-8-8Z" fill="#f97316"/>
    <rect x="312" y="456" width="32" height="24" fill="#1f2937"/>
    <rect x="184" y="456" width="32" height="24" fill="#1f2937"/>
    <rect x="152" y="432" width="16" height="8" fill="#1f2937"/>
    <path d="M336,32V144H472V32Zm64,56a8.00039,8.00039,1-8,8H360a8.00039,8.00039,1-8-8V56a8.00039,8.00039,1,8-8h32a8.00039,8.00039,1,8,8Zm24,40H408V112h16Zm32,0H440V112h16Z" fill="#f97316"/>
</svg>