<svg xmlns="http://www.w3.org/2000/svg" xmlns:xlink="http://www.w3.org/1999/xlink" version="1.1" x="0px" y="0px" viewBox="0 0 100 100" style="enable-background:new 0 0 100 100;" xml:space="preserve">
    <path fill='#111827' d="M84.39,40.75H75.5v-26l-3.76-3.5l-3.62,3.38l-3.62-3.38l-3.63,3.38l-3.62-3.38l-3.63,3.38L50,11.25l-3.62,3.38l-3.63-3.38  l-3.62,3.38l-3.62-3.38l-3.63,3.38l-3.62-3.38l-3.76,3.5v26h-8.89C6.99,40.75,0,47.74,0,56.36v32.39h100V56.36  C100,47.74,93.01,40.75,84.39,40.75z M35.92,37c0.78-0.78,2.05-0.78,2.83,0l4.92,4.92l1.17-1.17l16.41-16.41  c0.78-0.78,2.05-0.78,2.83,0c0.78,0.78,0.78,2.04,0,2.83L43.67,47.58l-6.83-6.83l-0.92-0.92C35.14,39.05,35.14,37.78,35.92,37z   M77.82,61.57C77.1,62.3,76.1,62.75,75,62.75H25c-2.2,0-4-1.8-4-4c0-1.1,0.45-2.1,1.18-2.82c0.61-0.62,1.42-1.03,2.32-1.15v4.97h51  v-4.97c1.97,0.25,3.5,1.94,3.5,3.97C79,59.85,78.55,60.85,77.82,61.57z"/>
</svg>