<svg width="16" height="12" viewBox="0 0 16 12" fill="none" xmlns="http://www.w3.org/2000/svg">
<path d="M14.5 11V11.5L9.07718 11.5H6.7289L1.5 11.5V11V2.5H5H5.5V2V1.5H7.5H8H8.01362H8.5H10.5V2V2.5H11H14.5V11ZM7.99982 0.986568L7.98674 0.5H8V0.993275L7.99982 0.986568Z" stroke="#1f2937"/>
<path d="M3 9H5V7H3V9Z" fill="#1f2937"/>
<path d="M3 6H5V4H3V6Z" fill="#1f2937"/>
<path d="M11 6H13V4H11V6Z" fill="#1f2937"/>
<path d="M11 9H13V7H11V9Z" fill="#1f2937"/>
<path d="M7 11H9V8H7V11Z" fill="#1f2937"/>
<path d="M9.07679 3.47428L9.06608 3.31902L7.90309 2.77722L6.73993 3.31885L6.72939 3.4741C6.67723 4.24931 7.02163 4.89895 7.75311 5.40492L7.90309 5.50889L8.05308 5.4051C8.78473 4.89895 9.12896 4.24931 9.07679 3.47428ZM7.90309 4.86066C7.4772 4.52135 7.26294 4.12672 7.25188 3.66167L7.90309 3.35854L8.55449 3.66184C8.54342 4.12672 8.32898 4.52135 7.90309 4.86066Z" fill="#1f2937"/>
</svg>
