<svg xmlns="http://www.w3.org/2000/svg" version="1.1" viewBox="-5.0 -10.0 110.0 110.0">
 <path d="m49.41 78.438v-30.82l-26.176-12.793v26.938zm11.457-36.836v11.145l3.2969-4.1328c0.25-0.37109 0.74219-0.49609 1.1406-0.28125l1.625 0.875v-11.336zm-27.219-12.758 26.266 11.277 5.8672-3.6094-27.75-9.8125zm24.43 12.402-26.512-11.383-7.2539 3.543 25.922 12.668zm10.605-4.457v13.883c0 0.69531-0.76953 1.1094-1.3438 0.75l-2.2188-1.1953-4.4531 5.5625c-0.51562 0.65234-1.5547 0.27344-1.5547-0.54297l-0.007812-12.566-7.9375 4.8828v30.672l23.625-18.387-0.003907-26.816zm-28.441-11.164 27.461 9.7109 5.8633-3.6094-28.023-8.6914zm-28.57 66.477h38.367c23.164 0 42.105-18.938 42.105-42.105 0-23.164-18.938-42.102-42.105-42.102h-38.367c-4.3125 0-4.2344 6.5 0 6.5h38.367c19.578 0 35.605 16.027 35.605 35.605s-16.027 35.605-35.605 35.605h-38.367c-4.3125 0-4.2305 6.4961 0 6.4961zm14.801-61.703c4.4375-2.1641 8.8633-4.3281 13.297-6.5h-21.031c-4.3125 0-4.2305 6.5 0 6.5zm-4.9961 17.656v-6.4922h-7.4688c-4.3125 0-4.2305 6.4922 0 6.4922zm2.8203 16.457-2.4141-1.5312c-0.25781-0.16406-0.40234-0.44922-0.40234-0.73438v-4.2266l-10.418-0.003906c-4.3125 0-4.2344 6.4922 0 6.4922zm22.898 14.59-10.203-6.5h-12.328c-4.3125 0-4.2305 6.5 0 6.5z"/>
</svg>