<svg xmlns="http://www.w3.org/2000/svg" xmlns:xlink="http://www.w3.org/1999/xlink" version="1.1" x="0px" y="0px" viewBox="-2 0 30 23" fill="#111827" style="enable-background:new 0 0 24 24;" xml:space="preserve">
    <g>
        <path d="M21.5563354,11.6568604l-9.0710449-9.071106C12.1102295,2.2106934,11.6015015,2,11.0710449,2H6
        C3.7908325,2,2,3.7908325,2,6v5.0710449c0,0.5304565,0.2106934,1.0391235,0.5858154,1.4142456l9.0710449,9.0710449
        c0.7810669,0.7810669,2.0473633,0.7810669,2.8284302,0l7.0710449-7.0710449
        C22.3374023,13.7042236,22.3374023,12.4378662,21.5563354,11.6568604z M7.5606689,7.5606689
        c-0.5858154,0.5857544-1.5355225,0.5857544-2.1213379,0c-0.5857544-0.5858154-0.5857544-1.5355835,0-2.1213379
        c0.5858154-0.5858154,1.5355225-0.5858154,2.1213379,0C8.1464233,6.0250854,8.1464233,6.9748535,7.5606689,7.5606689z
        M13.5698853,17.0354004V18h-1.3499756v-0.9353638c-0.7600098-0.0864868-1.3845825-0.3406372-1.9304199-0.894165
        l0.8947754-0.8951416c0.4478149,0.4473267,1.0543213,0.5967407,1.7106323,0.5967407
        c0.8154297,0,1.2531128-0.3084717,1.2531128-0.8753052c0-0.2485962-0.0696411-0.4575195-0.2186279-0.5968628
        c-0.1393433-0.1290894-0.2984009-0.1987915-0.62677-0.2485352l-0.8551025-0.1190186
        c-0.6069336-0.0894775-1.0543213-0.2785645-1.3725586-0.5871582c-0.3380127-0.3380127-0.5072632-0.7955322-0.5072632-1.3919678
        c0-1.0180054,0.6147461-1.781311,1.6522217-2.0427856V9h1.3499756v0.9414062
        c0.7041016,0.0786743,1.263855,0.3174438,1.7514648,0.7890625l-0.874939,0.8652344
        c-0.4478149-0.4274902-0.9846802-0.4874268-1.4519043-0.4874268c-0.736084,0-1.0939941,0.4077148-1.0939941,0.8952026
        c0,0.178894,0.0595093,0.367981,0.2089233,0.506897c0.1392212,0.1295166,0.3676758,0.2388306,0.656311,0.2785645
        l0.8352661,0.1194458c0.6466064,0.0894775,1.0543213,0.2684326,1.3522949,0.5469971
        c0.3781128,0.3578491,0.5469971,0.874939,0.5469971,1.5016479C15.5003052,16.1036377,14.6969604,16.826355,13.5698853,17.0354004z"/>
    </g>
</svg>