<svg xmlns="http://www.w3.org/2000/svg" version="1.1" viewBox="-5.0 -10.0 110.0 110.0">
 <g>
  <path fill="#1f2937" d="m74.922 48.438h-49.84c-6.4141 0-11.633-5.2188-11.633-11.633 0-6.4141 5.2188-11.633 11.633-11.633h30.125c0.86328 0 1.5625-0.69922 1.5625-1.5625s-0.69922-1.5625-1.5625-1.5625h-30.125c-8.1367 0-14.758 6.6211-14.758 14.758 0 8.1406 6.6211 14.758 14.758 14.758h49.84c6.4141 0 11.633 5.2188 11.633 11.633 0 6.4141-5.2188 11.633-11.633 11.633h-30.48c-0.86328 0-1.5625 0.69922-1.5625 1.5625s0.69922 1.5625 1.5625 1.5625h30.48c8.1367 0 14.758-6.6211 14.758-14.758 0-8.1406-6.6211-14.758-14.758-14.758z"/>
  <path fill="#f97316" d="m74.516 3.125c-8.3906 0-15.219 6.8281-15.219 15.219 0 7.875 12.562 23.438 14 25.188 0.29688 0.35938 0.75 0.5625 1.2188 0.5625 0.45312 0 0.90625-0.20312 1.2031-0.5625 1.4375-1.75 14-17.312 14-25.188 0-8.3906-6.8125-15.219-15.203-15.219zm-7.3594 15.219c0-4.0469 3.2969-7.3438 7.3594-7.3438s7.3438 3.2969 7.3438 7.3438-3.2969 7.3438-7.3438 7.3438-7.3594-3.2969-7.3594-7.3438z"/>
  <path fill="#1f2937" d="m25.547 55.906c-8.3906 0-15.219 6.8281-15.219 15.219 0 7.875 12.578 23.438 14 25.188 0.29688 0.35938 0.75 0.5625 1.2188 0.5625s0.90625-0.20312 1.2031-0.5625c1.4375-1.75 14.016-17.312 14.016-25.188 0-8.3906-6.8281-15.219-15.219-15.219zm-7.3438 15.219c0-4.0469 3.2812-7.3438 7.3438-7.3438s7.3438 3.2969 7.3438 7.3438-3.2969 7.3438-7.3438 7.3438-7.3438-3.2969-7.3438-7.3438z"/>
 </g>
</svg>