<svg width="32" height="15" viewBox="0 0 32 30" fill="none" xmlns="http://www.w3.org/2000/svg">
<g clip-path="url(#clip0_372_42005)">
<path d="M25.5928 24.5705C22.2183 24.5705 19.4727 21.8249 19.4727 18.4504C19.4727 18.2763 19.4839 18.1078 19.5007 17.9394L19.5569 17.2712H31.6344L31.6905 17.9394C31.7074 18.1078 31.713 18.2819 31.713 18.4504C31.713 21.8249 28.9673 24.5705 25.5928 24.5705ZM20.9381 18.7311C21.0841 21.1735 23.1167 23.1107 25.5928 23.1107C28.069 23.1107 30.1015 21.1679 30.2475 18.7311H20.9437H20.9381Z" fill="#1f2937"/>
<path d="M25.5921 10.5952C24.2614 10.5952 23.1777 9.51157 23.1777 8.18085C23.1777 6.85014 24.2614 5.76648 25.5921 5.76648C26.9228 5.76648 28.0065 6.85014 28.0065 8.18085C28.0065 9.51157 26.9228 10.5952 25.5921 10.5952ZM25.5921 7.22072C25.0643 7.22072 24.6376 7.64744 24.6376 8.17524C24.6376 8.70303 25.0643 9.13537 25.5921 9.13537C26.1199 9.13537 26.5466 8.70865 26.5466 8.17524C26.5466 7.64183 26.1199 7.22072 25.5921 7.22072Z" fill="#f97316"/>
<path d="M6.11945 10.5952C4.78874 10.5952 3.70508 9.51157 3.70508 8.18085C3.70508 6.85014 4.78874 5.76648 6.11945 5.76648C7.45016 5.76648 8.53383 6.85014 8.53383 8.18085C8.53383 9.51157 7.45016 10.5952 6.11945 10.5952ZM6.11945 7.22072C5.59166 7.22072 5.16493 7.64744 5.16493 8.17524C5.16493 8.70303 5.59166 9.13537 6.11945 9.13537C6.64725 9.13537 7.07397 8.70865 7.07397 8.17524C7.07397 7.64183 6.64725 7.22072 6.11945 7.22072Z" fill="#f97316"/>
<path d="M12.2403 18.4504C12.2403 18.2763 12.2291 18.1078 12.2179 17.9394L12.1617 17.2712H0.0842223L0.0280741 17.9394C0.0112296 18.1078 0 18.2819 0 18.4504C0 21.8249 2.74565 24.5705 6.12016 24.5705C9.49467 24.5705 12.2403 21.8249 12.2403 18.4504ZM6.12016 23.1107C3.64402 23.1107 1.61145 21.1679 1.46547 18.7311H10.7748C10.6289 21.1735 8.59629 23.1107 6.12016 23.1107Z" fill="#1f2937"/>
<path d="M29.7423 5.88433L30.1803 4.49186L15.8344 0L1.49414 4.49186L1.9321 5.88433L15.1382 1.74621V22.9478C10.5284 23.1948 6.83945 25.8563 6.60924 29.2195L6.55871 30H25.1157L25.0596 29.2195C24.835 25.8731 21.1797 23.2173 16.598 22.9534V1.76867L29.7367 5.88433H29.7423ZM23.4593 28.5401H8.21508C8.9394 26.1875 12.1398 24.3852 15.8344 24.3852C19.529 24.3852 22.735 26.1875 23.4537 28.5401H23.4593Z" fill="#1f2937"/>
<path d="M19.7305 16.4009H21.4654L24.5985 11.5497H22.8635L19.7305 16.4009Z" fill="#1f2937"/>
<path d="M29.719 16.4009H31.454L28.3209 11.5497H26.5859L29.719 16.4009Z" fill="#1f2937"/>
<path d="M10.2464 16.4009H11.9813L8.84826 11.5497H7.11328L10.2464 16.4009Z" fill="#1f2937"/>
<path d="M0.257812 16.4009H1.99279L5.12586 11.5497H3.39088L0.257812 16.4009Z" fill="#1f2937"/>
</g>
<defs>
<clipPath id="clip0_372_42005">
<rect width="31.7125" height="30" fill="white"/>
</clipPath>
</defs>
</svg>
