<!DOCTYPE svg PUBLIC "-//W3C//DTD SVG 1.1//EN" "http://www.w3.org/Graphics/SVG/1.1/DTD/svg11.dtd">
<!-- Uploaded to: SVG Repo, www.svgrepo.com, Transformed by: SVG Repo Mixer Tools -->
<svg fill="#fee2e2" width="800px" height="800px" viewBox="0 0 512 512" xmlns="http://www.w3.org/2000/svg" stroke="#231F20" stroke-width="15">

<g id="SVGRepo_bgCarrier" stroke-width="0"/>

<g id="SVGRepo_tracerCarrier" stroke-linecap="round" stroke-linejoin="round"/>

<g id="SVGRepo_iconCarrier">

<title>search</title>

<path d="M416 448L319 351Q277 383 224 383 181 383 144 362 107 340 86 303 64 266 64 223 64 180 86 143 107 106 144 85 181 63 224 63 267 63 304 85 341 106 363 143 384 180 384 223 384 277 351 319L448 416 416 448ZM223 336Q270 336 303 303 335 270 335 224 335 177 303 145 270 112 223 112 177 112 144 145 111 177 111 224 111 270 144 303 177 336 223 336Z"/>

</g>

</svg>