<svg width="100" height="24" viewBox="0 0 100 50" fill="none" xmlns="http://www.w3.org/2000/svg">
<path d="M17.7109 42.6799C18.9516 42.6799 19.9441 43.6725 19.9441 44.9132C19.9441 46.1538 18.9516 47.1464 17.7109 47.1464C16.4702 47.1464 15.4777 46.1538 15.4777 44.9132C15.4777 43.6725 16.4702 42.6799 17.7109 42.6799ZM17.7109 39.5782C14.8573 39.5782 12.5 41.9355 12.5 44.7891C12.5 47.6427 14.8573 50 17.7109 50C20.5645 50 22.9218 47.6427 22.9218 44.7891C22.9218 41.9355 20.5645 39.5782 17.7109 39.5782Z" fill="#f97316"/>
<path d="M80.9864 42.6799C82.2271 42.6799 83.2197 43.6725 83.2197 44.9132C83.2197 46.1538 82.2271 47.1464 80.9864 47.1464C79.7457 47.1464 78.7532 46.1538 78.7532 44.9132C78.7532 43.6725 79.7457 42.6799 80.9864 42.6799ZM80.9864 39.5782C78.1328 39.5782 75.7755 41.9355 75.7755 44.7891C75.7755 47.6427 78.1328 50 80.9864 50C83.84 50 86.1973 47.6427 86.1973 44.7891C86.1973 41.9355 83.84 39.5782 80.9864 39.5782Z" fill="#f97316"/>
<path d="M100 40.625H87.5V43.75H100V40.625Z" fill="#1f2937"/>
<path d="M75 40.625H25V43.75H75V40.625Z" fill="#1f2937"/>
<path d="M34.3749 12.5H31.2499V21.875H12.4999L9.37488 25H34.3749V12.5Z" fill="#1f2937"/>
<path d="M34.3751 23.2213H31.25V15.625H14.0625L14.0626 12.5H34.3751V23.2213Z" fill="#1f2937"/>
<path d="M21.8751 21.875H18.7501L18.7501 14.1304L18.7501 12.5H21.875L21.8751 21.875Z" fill="#1f2937"/>
<path d="M96.8749 3.125L96.8751 34.375H34.3747L34.3749 3.125H96.8749ZM100 0H34.3751L34.3749 37.5H100L100 0Z" fill="#1f2937"/>
<path d="M45.1923 3.125V0L39.4231 5.65419e-06L35 0.098824L33.5577 0H26.8051H18.75L9.375 21.875L0 28.125V33.2016V35.7708L0 43.75H11.5385V40.625H3.125V36.6601V34.1897V29.6875L12.5 23.4375L20.3125 3.125H27.4519H33.3654H34.6154H45.1923Z" fill="#1f2937"/>
<rect x="65.625" y="6.25" width="12.5" height="12.5" fill="#f97316"/>
<rect x="65.625" y="6.25" width="12.5" height="12.5" fill="#f97316"/>
<rect x="65.625" y="6.25" width="12.5" height="12.5" fill="#f97316"/>
<rect x="50" y="21.875" width="12.5" height="12.5" fill="#f97316"/>
<rect x="50" y="21.875" width="12.5" height="12.5" fill="#f97316"/>
<rect x="50" y="21.875" width="12.5" height="12.5" fill="#f97316"/>
<rect x="50" y="6.25" width="12.5" height="12.5" fill="#f97316"/>
<rect x="50" y="6.25" width="12.5" height="12.5" fill="#f97316"/>
<rect x="50" y="6.25" width="12.5" height="12.5" fill="#f97316"/>
<rect x="65.625" y="21.875" width="12.5" height="12.5" fill="#f97316"/>
<rect x="65.625" y="21.875" width="12.5" height="12.5" fill="#f97316"/>
<rect x="65.625" y="21.875" width="12.5" height="12.5" fill="#f97316"/>
<rect x="81.25" y="21.875" width="12.5" height="12.5" fill="#f97316"/>
<rect x="81.25" y="21.875" width="12.5" height="12.5" fill="#f97316"/>
<rect x="81.25" y="21.875" width="12.5" height="12.5" fill="#f97316"/>
</svg>
