<svg xmlns="http://www.w3.org/2000/svg" version="1.1" viewBox="-5.0 -10.0 110.0 110.0">
 <path fill="#111827" d="m41.539 35.543c1.2227 1.2188 3.1992 1.2188 4.4219 0 1.2188-1.2188 1.2188-3.1992 0-4.418l-12.5-12.5c-1.2227-1.2227-3.1992-1.2227-4.4219 0l-12.5 12.5c-1.2188 1.2188-1.2188 3.1992 0 4.418 1.2227 1.2188 3.1992 1.2188 4.4219 0l7.1641-7.1641v50.789c0 1.7227 1.3984 3.125 3.125 3.125s3.125-1.4023 3.125-3.125v-50.789zm16.922 28.914c-1.2227-1.2188-3.1992-1.2188-4.4219 0-1.2188 1.2188-1.2188 3.1992 0 4.418l12.5 12.5c1.2227 1.2227 3.1992 1.2227 4.4219 0l12.5-12.5c1.2188-1.2188 1.2188-3.1992 0-4.418-1.2227-1.2188-3.1992-1.2188-4.4219 0l-7.1641 7.1641v-50.789c0-1.7227-1.3984-3.125-3.125-3.125s-3.125 1.4023-3.125 3.125v50.789z" fill-rule="evenodd"/>
</svg>