<svg width="72" height="16" viewBox="0 0 72 16" fill="none" xmlns="http://www.w3.org/2000/svg">
<path d="M72 11.9124H20.4603V0H72V11.9124ZM21.4717 10.8613H70.9498V1.05109H21.4717V10.8613Z" fill="#1f2937"/>
<path d="M20.8104 13.6253C21.1994 13.6253 21.5106 13.9367 21.5106 14.326C21.5106 14.7153 21.1994 15.0268 20.8104 15.0268C20.4214 15.0268 20.1103 14.7153 20.1103 14.326C20.1103 13.9367 20.4214 13.6253 20.8104 13.6253ZM20.8104 12.6521C19.8769 12.6521 19.1378 13.3917 19.1378 14.326C19.1378 15.2603 19.8769 16 20.8104 16C21.744 16 22.483 15.2603 22.483 14.326C22.5219 13.3917 21.744 12.6521 20.8104 12.6521Z" fill="#f97316"/>
<path d="M25.167 13.6253C25.556 13.6253 25.8672 13.9367 25.8672 14.326C25.8672 14.7153 25.556 15.0268 25.167 15.0268C24.778 15.0268 24.4668 14.7153 24.4668 14.326C24.4668 13.9367 24.778 13.6253 25.167 13.6253ZM25.167 12.6521C24.2334 12.6521 23.4944 13.3917 23.4944 14.326C23.4944 15.2603 24.2334 16 25.167 16C26.1005 16 26.8396 15.2603 26.8396 14.326C26.8396 13.3917 26.1005 12.6521 25.167 12.6521Z" fill="#f97316"/>
<path d="M63.0147 13.6253C63.4036 13.6253 63.7148 13.9367 63.7148 14.326C63.7148 14.7153 63.4036 15.0268 63.0147 15.0268C62.6257 15.0268 62.3145 14.7153 62.3145 14.326C62.3145 13.9367 62.6257 13.6253 63.0147 13.6253ZM63.0147 12.6521C62.0811 12.6521 61.342 13.3917 61.342 14.326C61.342 15.2603 62.0811 16 63.0147 16C63.9482 16 64.6873 15.2603 64.6873 14.326C64.6873 13.3917 63.9482 12.6521 63.0147 12.6521Z" fill="#f97316"/>
<path d="M67.3711 13.6253C67.7601 13.6253 68.0713 13.9367 68.0713 14.326C68.0713 14.7153 67.7601 15.0268 67.3711 15.0268C66.9821 15.0268 66.6709 14.7153 66.6709 14.326C66.6709 13.9367 66.9821 13.6253 67.3711 13.6253ZM67.3711 12.6521C66.4375 12.6521 65.6985 13.3917 65.6985 14.326C65.6985 15.2603 66.4375 16 67.3711 16C68.3046 16 69.0437 15.2603 69.0437 14.326C69.0437 13.3917 68.3046 12.6521 67.3711 12.6521Z" fill="#f97316"/>
<path d="M4.94007 13.6253C5.32904 13.6253 5.64023 13.9367 5.64023 14.326C5.64023 14.7153 5.32904 15.0268 4.94007 15.0268C4.55109 15.0268 4.2399 14.7153 4.2399 14.326C4.2399 13.9367 4.55109 13.6253 4.94007 13.6253ZM4.94007 12.6521C4.00652 12.6521 3.26746 13.3917 3.26746 14.326C3.26746 15.2603 4.00652 16 4.94007 16C5.87361 16 6.61267 15.2603 6.61267 14.326C6.61267 13.3917 5.83472 12.6521 4.94007 12.6521Z" fill="#f97316"/>
<path d="M1.05024 10.2384L6.06807 9.10949H11.0081L10.7747 6.81265H16.0648V10.9781H17.1151V1.40146L17.0762 0.6618H16.5705C11.0081 0.6618 6.65154 5.13869 6.45705 5.33333L6.37925 5.41119L5.6013 8.13625L0 9.42092V14.5207H2.72285V13.4696H1.05024V10.2384ZM9.84117 8.05839H6.69044L7.04052 6.81265H9.72447L9.84117 8.05839ZM16.0648 5.76156H7.50729C8.47974 4.82725 11.9417 1.94647 16.0648 1.7129V5.76156Z" fill="#1f2937"/>
<path d="M18.3987 13.4696H7.23499V14.5207H18.3987V13.4696Z" fill="#1f2937"/>
<path d="M18.3987 11.6399H7.23499V12.691H18.3987V11.6399Z" fill="#1f2937"/>
<rect x="22.5608" y="1.94647" width="8.16856" height="8.17518" fill="#f97316"/>
<rect x="32.2853" y="1.94647" width="8.16856" height="8.17518" fill="#f97316"/>
</svg>
