<svg xmlns="http://www.w3.org/2000/svg" version="1.1" viewBox="-5.0 -10.0 110.0 135.0">
 <path fill="#1f2937" d="m39.68 73.199v8.6602h-5.7266v-8.6602h-6.1875c-1.0234 0-1.8555 0.83594-1.8555 1.8555l0.007813 19.105c0 1.0234 0.83594 1.8555 1.8555 1.8555h17.523c1.0234 0 1.8555-0.83203 1.8555-1.8555v-19.105c0-1.0234-0.83203-1.8555-1.8555-1.8555zm-11.918-5.7266h17.535c1.0234 0 1.8555-0.83594 1.8555-1.8555v-19.105c0-1.0234-0.83203-1.8555-1.8555-1.8555h-5.6172v8.6602h-5.7266v-8.6602h-6.1992c-1.0234 0-1.8555 0.83594-1.8555 1.8555l0.007812 19.105c0 1.0234 0.83594 1.8555 1.8555 1.8555zm25.117-1.8555c0 1.0234 0.83594 1.8555 1.8555 1.8555h17.496c1.0195 0 1.8555-0.83594 1.8555-1.8555v-19.105c0-1.0234-0.83594-1.8555-1.8555-1.8555h-5.582v8.6602h-5.7266v-8.6602h-6.1875c-1.0234 0-1.8555 0.83203-1.8555 1.8555zm27.867 30.398c-0.51172 0-0.92969-0.41406-0.92969-0.92969l0.035156-53.297c0.003907-1.5586-1.2578-2.8633-2.8633-2.8633h-53.945c-1.582 0-2.8633 1.2812-2.8633 2.8633l0.03125 53.297c0 0.51172-0.41797 0.92969-0.92969 0.92969h-14.371c-0.51172 0-0.92578-0.41406-0.92578-0.92578v-62.953c0-1.3633 0.67578-2.5312 1.8555-3.2148l42.305-24.426c1.1836-0.68359 2.5312-0.67969 3.7109 0l42.305 24.426c1.1797 0.67969 1.8555 1.8516 1.8555 3.2148v62.953c0 0.51172-0.41406 0.92578-0.92578 0.92578zm-14.332-22.816v8.6602h-5.7305v-8.6602h-5.9492c-1.0234 0-1.8555 0.83594-1.8555 1.8555v19.105c0 1.0234 0.83594 1.8555 1.8555 1.8555h17.496c1.0195 0 1.8555-0.83203 1.8555-1.8555v-19.105c0-1.0234-0.83594-1.8555-1.8555-1.8555h-5.8203z" fill-rule="evenodd"/>
</svg>